<?xml version="1.0" encoding="utf-8"?>
<!-- Generator: Adobe Illustrator 17.1.0, SVG Export Plug-In . SVG Version: 6.00 Build 0)  -->
<!DOCTYPE svg PUBLIC "-//W3C//DTD SVG 1.1//EN" "http://www.w3.org/Graphics/SVG/1.1/DTD/svg11.dtd">
<svg version="1.1" id="Layer_1" xmlns="http://www.w3.org/2000/svg" xmlns:xlink="http://www.w3.org/1999/xlink" x="0px" y="0px"
	 viewBox="0 0 131.2 131.2" enable-background="new 0 0 131.2 131.2" xml:space="preserve">
<g>
	<path fill="#FFFFFF" d="M114.8,131.2H16.4c-9.1,0-16.4-7.3-16.4-16.4V16.4C0,7.3,7.3,0,16.4,0h98.4c9.1,0,16.4,7.3,16.4,16.4v98.4
		C131.2,123.9,123.9,131.2,114.8,131.2z"/>
</g>
<g>
	<defs>
		<path id="SVGID_15_" d="M114.8,131.2H16.4c-9.1,0-16.4-7.3-16.4-16.4V16.4C0,7.3,7.3,0,16.4,0h98.4c9.1,0,16.4,7.3,16.4,16.4v98.4
			C131.2,123.9,123.9,131.2,114.8,131.2z"/>
	</defs>
	<clipPath id="SVGID_2_">
		<use xlink:href="#SVGID_15_"  overflow="visible"/>
	</clipPath>
	<path clip-path="url(#SVGID_2_)" fill="#D2DE8C" d="M118.8,97.5C11.3,93-54,105.3-120.4,128.8c0,0-19.5,5,21.3,5s315.8,0,315.8,0
		S181,105.6,118.8,97.5z"/>
	<path clip-path="url(#SVGID_2_)" fill="#BACD79" d="M120.2,106.6C78.2,103.4-18,122.1-26.3,137.6l239.7-6.3c0,0-44-21.3-90.8-24.6
		C121.8,106.7,121,106.6,120.2,106.6z"/>
	<g clip-path="url(#SVGID_2_)">
		<g>
			<rect x="27.8" y="66.7" fill="#99957A" width="38.3" height="35"/>
			<polygon fill="#1A1A1A" points="64.7,58.4 29.1,58.4 27.8,66.7 66.1,66.7 			"/>
			<rect x="27.8" y="101.7" fill="#1A1A1A" width="38.3" height="1.1"/>
			<g>
				<g>
					<g>
						<rect x="43.7" y="84" fill="#4A3D47" width="6.4" height="16.3"/>
						<polygon fill="#1A1A1A" points="50.5,83.6 50.5,100.6 49.8,100.6 49.8,99.9 49.8,99.9 49.8,84.3 44.1,84.3 44.1,99.9 
							44.1,99.9 44.1,100.6 43.3,100.6 43.3,83.6 						"/>
					</g>
					<rect x="42.8" y="100.2" fill="#1A1A1A" width="8.2" height="1.4"/>
					<g>
						<path fill="#7C708A" d="M44.8,90.7c1.4-0.1,2.9-0.2,4.3-0.3l-0.3,0.3c-0.1-1.8-0.1-3.6-0.1-5.4l0.4,0.4c-1.4,0-2.9,0-4.3-0.1
							l0.4-0.4C45.1,87.1,44.9,88.9,44.8,90.7z M44.8,90.7c-0.2-1.8-0.3-3.6-0.4-5.4l0-0.3l0.4,0c1.4,0,2.9-0.1,4.3-0.1l0.4,0l0,0.4
							c0,1.8,0,3.6-0.1,5.4l0,0.3l-0.3,0C47.6,91,46.2,90.9,44.8,90.7z"/>
					</g>
					<g>
						<path fill="#7C708A" d="M44.8,98.9c1.4-0.1,2.9-0.2,4.3-0.3l-0.3,0.3c-0.1-1.8-0.1-3.6-0.1-5.4l0.4,0.4c-1.4,0-2.9,0-4.3-0.1
							l0.4-0.4C45.1,95.3,44.9,97.1,44.8,98.9z M44.8,98.9c-0.2-1.8-0.3-3.6-0.4-5.4l0-0.3l0.4,0c1.4,0,2.9-0.1,4.3-0.1l0.4,0l0,0.4
							c0,1.8,0,3.6-0.1,5.4l0,0.3l-0.3,0C47.6,99.1,46.2,99,44.8,98.9z"/>
					</g>
					<circle fill="#1A1A1A" cx="44.9" cy="92.4" r="0.4"/>
				</g>
				<g>
					<g>
						<g>
							<rect x="31.4" y="84.1" fill="#A0D6ED" width="6.2" height="8.5"/>
							<path fill="#4E4E4E" d="M30.5,83.2v10.1h7.8V83.2H30.5z M31.4,84.1h6.2v8.5h-6.2V84.1z"/>
						</g>
						<polygon opacity="0.3" fill="#F2F2F2" points="31.4,84.3 37.6,89 37.6,90.4 31.4,85.6 						"/>
						<polygon opacity="0.3" fill="#F2F2F2" points="31.4,86.4 37.6,91.2 37.6,92.5 31.4,87.8 						"/>
					</g>
					<rect x="29.6" y="90.7" fill="#1A1A1A" width="9.5" height="2.7"/>
				</g>
				<g>
					<g>
						<g>
							<rect x="56.4" y="84.1" fill="#A0D6ED" width="6.2" height="8.5"/>
							<path fill="#4E4E4E" d="M55.6,83.2v10.1h7.8V83.2H55.6z M56.4,84.1h6.2v8.5h-6.2V84.1z"/>
						</g>
						<polygon opacity="0.3" fill="#F2F2F2" points="56.4,84.3 62.6,89 62.6,90.4 56.4,85.6 						"/>
						<polygon opacity="0.3" fill="#F2F2F2" points="56.4,86.4 62.6,91.2 62.6,92.5 56.4,87.8 						"/>
					</g>
					<rect x="54.7" y="90.7" fill="#1A1A1A" width="9.5" height="2.7"/>
				</g>
				<g>
					<g>
						<g>
							<g>
								<g>
									<rect x="38.2" y="68.2" fill="#A0D6ED" width="6.2" height="8.5"/>
									<path fill="#4E4E4E" d="M37.4,67.4v10.1h7.8V67.4H37.4z M38.2,68.2h6.2v8.5h-6.2V68.2z"/>
								</g>
								<polygon opacity="0.3" fill="#F2F2F2" points="38.2,68.5 44.4,73.2 44.4,74.6 38.2,69.8 								"/>
								<polygon opacity="0.3" fill="#F2F2F2" points="38.2,70.6 44.4,75.4 44.4,76.7 38.2,72 								"/>
							</g>
							<g>
								<g>
									<rect x="31.2" y="68.2" fill="#A0D6ED" width="6.2" height="8.5"/>
									<path fill="#4E4E4E" d="M30.4,67.4v10.1h7.8V67.4H30.4z M31.2,68.2h6.2v8.5h-6.2V68.2z"/>
								</g>
								<polygon opacity="0.3" fill="#F2F2F2" points="31.2,68.5 37.4,73.2 37.4,74.6 31.2,69.8 								"/>
								<polygon opacity="0.3" fill="#F2F2F2" points="31.2,70.6 37.4,75.4 37.4,76.7 31.2,72 								"/>
							</g>
						</g>
						<rect x="29.6" y="74.9" fill="#1A1A1A" width="16.3" height="2.7"/>
					</g>
					<g>
						<g>
							<g>
								<g>
									<rect x="56.4" y="68.2" fill="#A0D6ED" width="6.2" height="8.5"/>
									<path fill="#4E4E4E" d="M55.6,67.4v10.1h7.8V67.4H55.6z M56.4,68.2h6.2v8.5h-6.2V68.2z"/>
								</g>
								<polygon opacity="0.3" fill="#F2F2F2" points="56.4,68.5 62.6,73.2 62.6,74.6 56.4,69.8 								"/>
								<polygon opacity="0.3" fill="#F2F2F2" points="56.4,70.6 62.6,75.4 62.6,76.7 56.4,72 								"/>
							</g>
							<g>
								<g>
									<rect x="49.4" y="68.2" fill="#A0D6ED" width="6.2" height="8.5"/>
									<path fill="#4E4E4E" d="M48.5,67.4v10.1h7.8V67.4H48.5z M49.4,68.2h6.2v8.5h-6.2V68.2z"/>
								</g>
								<polygon opacity="0.3" fill="#F2F2F2" points="49.4,68.5 55.6,73.2 55.6,74.6 49.4,69.8 								"/>
								<polygon opacity="0.3" fill="#F2F2F2" points="49.4,70.6 55.6,75.4 55.6,76.7 49.4,72 								"/>
							</g>
						</g>
						<rect x="47.8" y="74.9" fill="#1A1A1A" width="16.3" height="2.7"/>
					</g>
				</g>
			</g>
		</g>
		<rect x="61.4" y="30.2" fill="#AEAA8C" width="38.3" height="71.5"/>
		<polygon fill="#1A1A1A" points="98.3,21.8 62.7,21.8 61.4,30.2 99.7,30.2 		"/>
		<rect x="61.4" y="101.7" fill="#1A1A1A" width="38.3" height="1.1"/>
		<g>
			<g>
				<rect x="77.3" y="84" fill="#4A3D47" width="6.4" height="16.3"/>
				<polygon fill="#1A1A1A" points="84.1,83.6 84.1,100.6 83.4,100.6 83.4,99.9 83.4,99.9 83.4,84.3 77.7,84.3 77.7,99.9 77.7,99.9 
					77.7,100.6 76.9,100.6 76.9,83.6 				"/>
			</g>
			<rect x="76.4" y="100.2" fill="#1A1A1A" width="8.2" height="1.4"/>
			<g>
				<path fill="#7C708A" d="M78.4,90.7c1.4-0.1,2.9-0.2,4.3-0.3l-0.3,0.3c-0.1-1.8-0.1-3.6-0.1-5.4l0.4,0.4c-1.4,0-2.9,0-4.3-0.1
					l0.4-0.4C78.7,87.1,78.5,88.9,78.4,90.7z M78.4,90.7c-0.2-1.8-0.3-3.6-0.4-5.4l0-0.3l0.4,0c1.4,0,2.9-0.1,4.3-0.1l0.4,0l0,0.4
					c0,1.8,0,3.6-0.1,5.4l0,0.3l-0.3,0C81.2,91,79.8,90.9,78.4,90.7z"/>
			</g>
			<g>
				<path fill="#7C708A" d="M78.4,98.9c1.4-0.1,2.9-0.2,4.3-0.3l-0.3,0.3c-0.1-1.8-0.1-3.6-0.1-5.4l0.4,0.4c-1.4,0-2.9,0-4.3-0.1
					l0.4-0.4C78.7,95.3,78.5,97.1,78.4,98.9z M78.4,98.9c-0.2-1.8-0.3-3.6-0.4-5.4l0-0.3l0.4,0c1.4,0,2.9-0.1,4.3-0.1l0.4,0l0,0.4
					c0,1.8,0,3.6-0.1,5.4l0,0.3l-0.3,0C81.2,99.1,79.8,99,78.4,98.9z"/>
			</g>
			<circle fill="#1A1A1A" cx="78.5" cy="92.4" r="0.4"/>
		</g>
		<g>
			<g>
				<g>
					<rect x="65" y="84.1" fill="#A0D6ED" width="6.2" height="8.5"/>
					<path fill="#4E4E4E" d="M64.1,83.2v10.1H72V83.2H64.1z M65,84.1h6.2v8.5H65V84.1z"/>
				</g>
				<polygon opacity="0.3" fill="#F2F2F2" points="65,84.3 71.2,89 71.2,90.4 65,85.6 				"/>
				<polygon opacity="0.3" fill="#F2F2F2" points="65,86.4 71.2,91.2 71.2,92.5 65,87.8 				"/>
			</g>
			<rect x="63.2" y="90.7" fill="#1A1A1A" width="9.5" height="2.7"/>
		</g>
		<g>
			<g>
				<g>
					<rect x="90" y="84.1" fill="#A0D6ED" width="6.2" height="8.5"/>
					<path fill="#4E4E4E" d="M89.2,83.2v10.1H97V83.2H89.2z M90,84.1h6.2v8.5H90V84.1z"/>
				</g>
				<polygon opacity="0.3" fill="#F2F2F2" points="90,84.3 96.2,89 96.2,90.4 90,85.6 				"/>
				<polygon opacity="0.3" fill="#F2F2F2" points="90,86.4 96.2,91.2 96.2,92.5 90,87.8 				"/>
			</g>
			<rect x="88.3" y="90.7" fill="#1A1A1A" width="9.5" height="2.7"/>
		</g>
		<g>
			<g>
				<g>
					<g>
						<g>
							<rect x="71.8" y="68.2" fill="#A0D6ED" width="6.2" height="8.5"/>
							<path fill="#4E4E4E" d="M71,67.4v10.1h7.8V67.4H71z M71.8,68.2H78v8.5h-6.2V68.2z"/>
						</g>
						<polygon opacity="0.3" fill="#F2F2F2" points="71.8,68.5 78,73.2 78,74.6 71.8,69.8 						"/>
						<polygon opacity="0.3" fill="#F2F2F2" points="71.8,70.6 78,75.4 78,76.7 71.8,72 						"/>
					</g>
					<g>
						<g>
							<rect x="64.8" y="68.2" fill="#A0D6ED" width="6.2" height="8.5"/>
							<path fill="#4E4E4E" d="M64,67.4v10.1h7.8V67.4H64z M64.8,68.2H71v8.5h-6.2V68.2z"/>
						</g>
						<polygon opacity="0.3" fill="#F2F2F2" points="64.8,68.5 71,73.2 71,74.6 64.8,69.8 						"/>
						<polygon opacity="0.3" fill="#F2F2F2" points="64.8,70.6 71,75.4 71,76.7 64.8,72 						"/>
					</g>
				</g>
				<rect x="63.2" y="74.9" fill="#1A1A1A" width="16.3" height="2.7"/>
			</g>
			<g>
				<g>
					<g>
						<g>
							<rect x="90" y="68.2" fill="#A0D6ED" width="6.2" height="8.5"/>
							<path fill="#4E4E4E" d="M89.2,67.4v10.1H97V67.4H89.2z M90,68.2h6.2v8.5H90V68.2z"/>
						</g>
						<polygon opacity="0.3" fill="#F2F2F2" points="90,68.5 96.2,73.2 96.2,74.6 90,69.8 						"/>
						<polygon opacity="0.3" fill="#F2F2F2" points="90,70.6 96.2,75.4 96.2,76.7 90,72 						"/>
					</g>
					<g>
						<g>
							<rect x="83" y="68.2" fill="#A0D6ED" width="6.2" height="8.5"/>
							<path fill="#4E4E4E" d="M82.1,67.4v10.1H90V67.4H82.1z M83,68.2h6.2v8.5H83V68.2z"/>
						</g>
						<polygon opacity="0.3" fill="#F2F2F2" points="83,68.5 89.2,73.2 89.2,74.6 83,69.8 						"/>
						<polygon opacity="0.3" fill="#F2F2F2" points="83,70.6 89.2,75.4 89.2,76.7 83,72 						"/>
					</g>
				</g>
				<rect x="81.4" y="74.9" fill="#1A1A1A" width="16.3" height="2.7"/>
			</g>
		</g>
		<g>
			<g>
				<rect x="90" y="56.3" fill="#A0D6ED" width="6.2" height="8.5"/>
				<path fill="#4E4E4E" d="M89.2,55.5v10.1H97V55.5H89.2z M90,56.3h6.2v8.5H90V56.3z"/>
			</g>
			<polygon opacity="0.3" fill="#F2F2F2" points="90,56.6 96.2,61.3 96.2,62.7 90,57.9 			"/>
			<polygon opacity="0.3" fill="#F2F2F2" points="90,58.7 96.2,63.5 96.2,64.8 90,60.1 			"/>
		</g>
		<g>
			<g>
				<rect x="81.3" y="56.3" fill="#A0D6ED" width="6.2" height="8.5"/>
				<path fill="#4E4E4E" d="M80.5,55.5v10.1h7.8V55.5H80.5z M81.3,56.3h6.2v8.5h-6.2V56.3z"/>
			</g>
			<polygon opacity="0.3" fill="#F2F2F2" points="81.3,56.6 87.5,61.3 87.5,62.7 81.3,57.9 			"/>
			<polygon opacity="0.3" fill="#F2F2F2" points="81.3,58.7 87.5,63.5 87.5,64.8 81.3,60.1 			"/>
		</g>
		<g>
			<g>
				<rect x="72.7" y="56.3" fill="#A0D6ED" width="6.2" height="8.5"/>
				<path fill="#4E4E4E" d="M71.9,55.5v10.1h7.8V55.5H71.9z M72.7,56.3h6.2v8.5h-6.2V56.3z"/>
			</g>
			<polygon opacity="0.3" fill="#F2F2F2" points="72.7,56.6 78.9,61.3 78.9,62.7 72.7,57.9 			"/>
			<polygon opacity="0.3" fill="#F2F2F2" points="72.7,58.7 78.9,63.5 78.9,64.8 72.7,60.1 			"/>
		</g>
		<g>
			<g>
				<rect x="64.1" y="56.3" fill="#A0D6ED" width="6.2" height="8.5"/>
				<path fill="#4E4E4E" d="M63.2,55.5v10.1h7.8V55.5H63.2z M64.1,56.3h6.2v8.5h-6.2V56.3z"/>
			</g>
			<polygon opacity="0.3" fill="#F2F2F2" points="64.1,56.6 70.3,61.3 70.3,62.7 64.1,57.9 			"/>
			<polygon opacity="0.3" fill="#F2F2F2" points="64.1,58.7 70.3,63.5 70.3,64.8 64.1,60.1 			"/>
		</g>
		<g>
			<g>
				<rect x="90" y="44" fill="#A0D6ED" width="6.2" height="8.5"/>
				<path fill="#4E4E4E" d="M89.2,43.2v10.1H97V43.2H89.2z M90,44h6.2v8.5H90V44z"/>
			</g>
			<polygon opacity="0.3" fill="#F2F2F2" points="90,44.3 96.2,49 96.2,50.4 90,45.6 			"/>
			<polygon opacity="0.3" fill="#F2F2F2" points="90,46.4 96.2,51.2 96.2,52.5 90,47.8 			"/>
		</g>
		<g>
			<g>
				<rect x="81.3" y="44" fill="#A0D6ED" width="6.2" height="8.5"/>
				<path fill="#4E4E4E" d="M80.5,43.2v10.1h7.8V43.2H80.5z M81.3,44h6.2v8.5h-6.2V44z"/>
			</g>
			<polygon opacity="0.3" fill="#F2F2F2" points="81.3,44.3 87.5,49 87.5,50.4 81.3,45.6 			"/>
			<polygon opacity="0.3" fill="#F2F2F2" points="81.3,46.4 87.5,51.2 87.5,52.5 81.3,47.8 			"/>
		</g>
		<g>
			<g>
				<rect x="72.7" y="44" fill="#A0D6ED" width="6.2" height="8.5"/>
				<path fill="#4E4E4E" d="M71.9,43.2v10.1h7.8V43.2H71.9z M72.7,44h6.2v8.5h-6.2V44z"/>
			</g>
			<polygon opacity="0.3" fill="#F2F2F2" points="72.7,44.3 78.9,49 78.9,50.4 72.7,45.6 			"/>
			<polygon opacity="0.3" fill="#F2F2F2" points="72.7,46.4 78.9,51.2 78.9,52.5 72.7,47.8 			"/>
		</g>
		<g>
			<g>
				<rect x="64.1" y="44" fill="#A0D6ED" width="6.2" height="8.5"/>
				<path fill="#4E4E4E" d="M63.2,43.2v10.1h7.8V43.2H63.2z M64.1,44h6.2v8.5h-6.2V44z"/>
			</g>
			<polygon opacity="0.3" fill="#F2F2F2" points="64.1,44.3 70.3,49 70.3,50.4 64.1,45.6 			"/>
			<polygon opacity="0.3" fill="#F2F2F2" points="64.1,46.4 70.3,51.2 70.3,52.5 64.1,47.8 			"/>
		</g>
		<g>
			<g>
				<rect x="90" y="31.7" fill="#A0D6ED" width="6.2" height="8.5"/>
				<path fill="#4E4E4E" d="M89.2,30.9V41H97V30.9H89.2z M90,31.7h6.2v8.5H90V31.7z"/>
			</g>
			<polygon opacity="0.3" fill="#F2F2F2" points="90,31.9 96.2,36.7 96.2,38.1 90,33.3 			"/>
			<polygon opacity="0.3" fill="#F2F2F2" points="90,34.1 96.2,38.8 96.2,40.2 90,35.5 			"/>
		</g>
		<g>
			<g>
				<rect x="81.3" y="31.7" fill="#A0D6ED" width="6.2" height="8.5"/>
				<path fill="#4E4E4E" d="M80.5,30.9V41h7.8V30.9H80.5z M81.3,31.7h6.2v8.5h-6.2V31.7z"/>
			</g>
			<polygon opacity="0.3" fill="#F2F2F2" points="81.3,31.9 87.5,36.7 87.5,38.1 81.3,33.3 			"/>
			<polygon opacity="0.3" fill="#F2F2F2" points="81.3,34.1 87.5,38.8 87.5,40.2 81.3,35.5 			"/>
		</g>
		<g>
			<g>
				<rect x="72.7" y="31.7" fill="#A0D6ED" width="6.2" height="8.5"/>
				<path fill="#4E4E4E" d="M71.9,30.9V41h7.8V30.9H71.9z M72.7,31.7h6.2v8.5h-6.2V31.7z"/>
			</g>
			<polygon opacity="0.3" fill="#F2F2F2" points="72.7,31.9 78.9,36.7 78.9,38.1 72.7,33.3 			"/>
			<polygon opacity="0.3" fill="#F2F2F2" points="72.7,34.1 78.9,38.8 78.9,40.2 72.7,35.5 			"/>
		</g>
		<g>
			<g>
				<rect x="64.1" y="31.7" fill="#A0D6ED" width="6.2" height="8.5"/>
				<path fill="#4E4E4E" d="M63.2,30.9V41h7.8V30.9H63.2z M64.1,31.7h6.2v8.5h-6.2V31.7z"/>
			</g>
			<polygon opacity="0.3" fill="#F2F2F2" points="64.1,31.9 70.3,36.7 70.3,38.1 64.1,33.3 			"/>
			<polygon opacity="0.3" fill="#F2F2F2" points="64.1,34.1 70.3,38.8 70.3,40.2 64.1,35.5 			"/>
		</g>
		<g>
			<path fill="#612825" d="M111,94.2c-0.4,0.1-0.7,0.2-1.1,0.2c-0.5,1.7-1.3,3.9-3,4.4c0.2-1.2,0.7-1.7,0.9-3c-0.5,0-1,0-1.5,0
				c-0.1,0.8-0.1,1.6-0.2,2.5c0,0.1,0,0.2-0.1,0.3c-0.2,0.1-0.4-0.1-0.5-0.3c-0.3-0.8-0.6-1.7-0.9-2.5l-1.7,0.1
				c0.9,1.1,1.3,2.4,1.5,3.8c0.2,1.4,0.1,2.8,0,4.1c0.5,0,1,0,1.6-0.1c0.1,0,0.3,0,0.3-0.1c0.1-0.1,0.1-0.2,0.1-0.3
				c0-0.9,0.1-2.1,0.3-3.2c1.2-0.5,2.3-1.2,3.1-2.2C110.8,97,111.3,95.6,111,94.2z"/>
			<path fill="#537133" d="M115.2,80.4c-0.3-8.9-6.5-14.9-10-14.9c0,0-0.1,0-0.1,0c0,0-0.1,0-0.1,0c-3.6,0-9.8,6-10,14.9
				c-0.1,2.5-0.9,8.2-0.4,10.2c1,4.7,7.6,6.1,10.4,6.3v0c0,0,0.1,0,0.2,0c0.1,0,0.1,0,0.2,0v0c2.8-0.1,9.4-1.5,10.4-6.3
				C116.1,88.6,115.2,82.9,115.2,80.4z"/>
			<path fill="#659740" d="M115.3,80.2c-0.3-8.8-6.5-14.8-10.1-14.8c0,0-0.1,0-0.1,0c0,0-0.1,0-0.1,0c-3.6,0-9.9,6-10.1,14.8
				c-0.1,1.9-0.3,3.7-0.5,5.6c-0.1,1.8-0.7,3.7,1,5.3c0.5,0.5,1.2,1.1,2.3,1.1c1.4,0,2.2-0.8,2.4-1.4c0.1-0.2,0.4-0.4,0.6-0.3
				c0.1,0,0.1,0.1,0.1,0.1c0.3,0.4,0.7,0.9,1,1.3c0.3,0.3,0.6,0.7,1.2,0.9c1.1,0.3,2.3-0.2,3-0.7c0.8-0.5,1.3-1.2,1.6-1.8
				c0.3,0.5,0.7,0.9,1.1,1.4c0.6,0.6,1.5,1.2,2.8,1.1c0.8,0,1.5-0.3,1.8-0.7c0.4-0.3,1.9-0.8,2-1.2c0.5-1.4,0.6-4.1,0.5-5.2
				C115.6,83.9,115.4,82.1,115.3,80.2z"/>
			<path fill="#82A547" d="M115.3,79.8c-0.3-8.6-6.5-14.5-10-14.5c0,0-0.1,0-0.1,0c0,0-0.1,0-0.1,0c-3.6,0-9.8,5.8-10,14.5
				c-0.1,1.8-1.5,4.3,1.1,5.8c0.7,0.4,1.6,0.7,2.7,0.7c1.2,0,2.4-0.3,3.2-0.8c0.8-0.5,1.2-1,1.6-1.6c0.4,0.8,0.9,1.5,1.7,2.2
				c0.8,0.7,2.1,1.3,3.7,1.5c0.6,0.1,1.3,0.1,1.9,0c0.9-0.2,1.4-0.7,1.7-1.1c0.5-0.8,0.6-1.6,0.4-2.4c0.1,0.4,0.3,0.8,0.7,1.2
				c0.1,0.1,0.3,0.2,0.5,0.3c2.5,0.8,1.5-2,1.5-2.3C115.5,82.2,115.3,81,115.3,79.8z"/>
			<g>
				<path fill="#8ABC3F" d="M99.1,80.3c0.4-0.5,0.6-1.1,1-1.6c0.4-0.5,1.1-0.9,1.6-0.5c0.2,0.2,0.3,0.4,0.4,0.7
					c0.5,1.2,0.7,2.7,1.8,3.5c1.1,0.7,2.8,0.3,3.4-0.9c0.4-0.7,0.4-1.6,0.6-2.3c0.2-0.8,0.9-1.6,1.7-1.5c1.4,0.2,1.2,2.6,2.4,3.4
					c0.9,0.6,2.1-0.1,3-0.9c0.1-0.1,0.3-0.2,0.4-0.4c0-0.4-0.1-0.8-0.1-1.2c-0.3-8.9-6.5-14.9-10-14.9c0,0-0.1,0-0.1,0
					c0,0-0.1,0-0.1,0c-3.6,0-9.8,6-10,14.9c0,0,0,0.1,0,0.1c0.1,0.2,0.2,0.5,0.3,0.7C96,80.7,98,81.4,99.1,80.3z"/>
			</g>
		</g>
	</g>
</g>
<path fill="none" d="M114.8,131.2H16.4c-9.1,0-16.4-7.3-16.4-16.4V16.4C0,7.3,7.3,0,16.4,0h98.4c9.1,0,16.4,7.3,16.4,16.4v98.4
	C131.2,123.9,123.9,131.2,114.8,131.2z"/>
</svg>
