<?xml version="1.0" encoding="utf-8"?>
<!-- Generator: Adobe Illustrator 17.1.0, SVG Export Plug-In . SVG Version: 6.00 Build 0)  -->
<!DOCTYPE svg PUBLIC "-//W3C//DTD SVG 1.1//EN" "http://www.w3.org/Graphics/SVG/1.1/DTD/svg11.dtd">
<svg version="1.1" id="Layer_1" xmlns="http://www.w3.org/2000/svg" xmlns:xlink="http://www.w3.org/1999/xlink" x="0px" y="0px"
	 viewBox="0 0 19.3 19.3" enable-background="new 0 0 19.3 19.3" xml:space="preserve">
<g>
	<path fill="#3DB771" d="M19.3,9.6c0,5.3-4.4,9.7-9.9,9.6C4.3,19.2,0,15,0,9.5C0,4.3,4.3,0,9.7,0C14.9,0,19.3,4.3,19.3,9.6z"/>
	<path fill="#FEFEFE" d="M16.5,6.8C16.5,6.9,16.4,6.9,16.5,6.8c-0.4,0.5-0.8,0.9-1.2,1.4c-0.3,0.4-0.6,0.7-0.9,1.1
		c-0.4,0.5-0.8,0.9-1.2,1.4c-0.4,0.5-0.9,1-1.3,1.6c-0.4,0.5-0.9,1-1.3,1.6c-0.6,0.7-1.1,1.3-1.7,2c-0.1,0.2-0.3,0.3-0.4,0.5
		c0,0.1-0.1,0.1-0.1,0c-1.8-1.8-3.6-3.6-5.4-5.4c-0.1-0.1-0.1-0.1,0-0.1c0.4-0.4,0.8-0.9,1.2-1.3C4.5,9,4.9,8.5,5.4,8
		c0.1-0.2,0.1-0.2,0.3,0c0.8,0.9,1.6,1.7,2.4,2.6c0.1,0.1,0.1,0.1,0.2,0.2c0.1-0.1,0.1-0.1,0.2-0.2c0.8-1.1,1.7-2.2,2.5-3.3
		c0.7-0.9,1.4-1.9,2.2-2.8c0.1-0.1,0.2-0.2,0.3-0.4c0-0.1,0.1,0,0.1,0c0.4,0.4,0.8,0.7,1.2,1.1c0.6,0.5,1.1,1,1.7,1.5
		C16.4,6.8,16.4,6.8,16.5,6.8z"/>
</g>
</svg>
