<?xml version="1.0" encoding="utf-8"?>
<!-- Generator: Adobe Illustrator 17.1.0, SVG Export Plug-In . SVG Version: 6.00 Build 0)  -->
<!DOCTYPE svg PUBLIC "-//W3C//DTD SVG 1.1//EN" "http://www.w3.org/Graphics/SVG/1.1/DTD/svg11.dtd">
<svg version="1.1" id="Layer_1" xmlns="http://www.w3.org/2000/svg" xmlns:xlink="http://www.w3.org/1999/xlink" x="0px" y="0px"
	 viewBox="0 0 291.1 154.1" enable-background="new 0 0 291.1 154.1" xml:space="preserve">
<g>
	<g>
		<text transform="matrix(1 0 0 1 19.9351 80.254)"><tspan x="0" y="0" fill="#FFFFFF" font-family="'CircularStd-Book'" font-size="12">Low Cost</tspan><tspan x="8.7" y="14.4" fill="#FFFFFF" font-family="'CircularStd-Book'" font-size="12">$ 000</tspan></text>
	</g>
	<g>
		<text transform="matrix(1 0 0 1 211.9263 76.7542)"><tspan x="0" y="0" fill="#FFFFFF" font-family="'CircularStd-Book'" font-size="12">High Cost</tspan><tspan x="9.7" y="14.4" fill="#FFFFFF" font-family="'CircularStd-Book'" font-size="12">$ 000</tspan></text>
	</g>
	<g>
		<text transform="matrix(1 0 0 1 102.607 10.254)"><tspan x="0" y="0" fill="#FFFFFF" font-family="'CircularStd-Book'" font-size="12">Average Cost</tspan><tspan x="18.6" y="14.4" fill="#FFFFFF" font-family="'CircularStd-Book'" font-size="12">$ 000</tspan></text>
	</g>
	<g>
		<defs>
			<path id="SVGID_135_" d="M126,40.2l-110,102.1h250l-110-102.1C147.6,32.3,134.5,32.3,126,40.2z"/>
		</defs>
		<clipPath id="SVGID_2_">
			<use xlink:href="#SVGID_135_"  overflow="visible"/>
		</clipPath>
		<g clip-path="url(#SVGID_2_)">
			<rect x="100.3" y="-27.9" fill="#FFFFFF" width="5.8" height="170.2"/>
			<rect x="108.7" y="-27.9" fill="#FFFFFF" width="5.8" height="170.2"/>
			<rect x="117.1" y="-27.9" fill="#FFFFFF" width="5.8" height="170.2"/>
			<rect x="125.6" y="-27.9" fill="#FFFFFF" width="5.8" height="170.2"/>
			<rect x="134" y="-27.9" fill="#FFFFFF" width="5.8" height="170.2"/>
			<rect x="142.4" y="-27.9" fill="#FFFFFF" width="5.8" height="170.2"/>
			<rect x="150.8" y="-27.9" fill="#FFFFFF" width="5.8" height="170.2"/>
			<rect x="159.3" y="-27.9" fill="#FFFFFF" width="5.8" height="170.2"/>
			<rect x="167.7" y="-27.9" fill="#FFFFFF" width="5.8" height="170.2"/>
			<rect x="176.1" y="-27.9" fill="#FFFFFF" width="5.8" height="170.2"/>
			<g>
				<rect x="16.1" y="-27.9" fill="#94CEF0" width="5.8" height="170.2"/>
				<rect x="24.5" y="-27.9" fill="#94CEF0" width="5.8" height="170.2"/>
				<rect x="32.9" y="-27.9" fill="#94CEF0" width="5.8" height="170.2"/>
				<rect x="41.4" y="-27.9" fill="#94CEF0" width="5.8" height="170.2"/>
				<rect x="49.8" y="-27.9" fill="#94CEF0" width="5.8" height="170.2"/>
				<rect x="58.2" y="-27.9" fill="#94CEF0" width="5.8" height="170.2"/>
				<rect x="66.6" y="-27.9" fill="#94CEF0" width="5.8" height="170.2"/>
				<rect x="75" y="-27.9" fill="#94CEF0" width="5.8" height="170.2"/>
				<rect x="83.5" y="-27.9" fill="#94CEF0" width="5.8" height="170.2"/>
				<rect x="91.9" y="-27.9" fill="#94CEF0" width="5.8" height="170.2"/>
			</g>
			<g>
				<rect x="184.5" y="-27.9" fill="#222D61" width="5.8" height="170.2"/>
				<rect x="192.9" y="-27.9" fill="#222D61" width="5.8" height="170.2"/>
				<rect x="201.4" y="-27.9" fill="#222D61" width="5.8" height="170.2"/>
				<rect x="209.8" y="-27.9" fill="#222D61" width="5.8" height="170.2"/>
				<rect x="218.2" y="-27.9" fill="#222D61" width="5.8" height="170.2"/>
				<rect x="226.6" y="-27.9" fill="#222D61" width="5.8" height="170.2"/>
				<rect x="235.1" y="-27.9" fill="#222D61" width="5.8" height="170.2"/>
				<rect x="243.5" y="-27.9" fill="#222D61" width="5.8" height="170.2"/>
				<rect x="251.9" y="-27.9" fill="#222D61" width="5.8" height="170.2"/>
				<rect x="260.3" y="-27.9" fill="#222D61" width="5.8" height="170.2"/>
			</g>
		</g>
	</g>
	<polyline fill="none" stroke="#FFFFFF" stroke-width="2.1909" stroke-miterlimit="10" points="291.1,153 1.1,153 1.1,16.1 	"/>
	<circle fill="#222D61" cx="141.1" cy="34.3" r="6"/>
	<circle fill="#3DB771" cx="141.1" cy="34.3" r="4.9"/>
	<circle fill="#FFFFFF" cx="141.1" cy="34.3" r="3"/>
</g>
</svg>
