<?xml version="1.0" encoding="utf-8"?>
<!-- Generator: Adobe Illustrator 17.1.0, SVG Export Plug-In . SVG Version: 6.00 Build 0)  -->
<!DOCTYPE svg PUBLIC "-//W3C//DTD SVG 1.1//EN" "http://www.w3.org/Graphics/SVG/1.1/DTD/svg11.dtd">
<svg version="1.1" id="Layer_1" xmlns="http://www.w3.org/2000/svg" xmlns:xlink="http://www.w3.org/1999/xlink" x="0px" y="0px"
	 viewBox="0 0 13.9 20.2" enable-background="new 0 0 13.9 20.2" xml:space="preserve">
<path fill="#000" d="M7.8,0c0.4,0.1,0.9,0.2,1.3,0.3c4.3,1.4,6.2,6.5,3.8,10.3c-1.9,3-3.8,6.1-5.7,9.1C7.2,19.9,7.1,20,7,20.2
	c-0.1-0.2-0.2-0.3-0.3-0.4c-1.9-3.1-3.8-6.1-5.7-9.2C-1.6,6.4,1,0.8,6,0.1C6,0.1,6.1,0,6.2,0C6.7,0,7.2,0,7.8,0z M9.8,6.9
	c0-1.6-1.3-2.8-2.9-2.8C5.4,4.1,4.1,5.4,4.1,7c0,1.6,1.3,2.8,2.9,2.8C8.5,9.8,9.8,8.5,9.8,6.9z"/>
</svg>
