<?xml version="1.0" encoding="utf-8"?>
<!-- Generator: Adobe Illustrator 17.1.0, SVG Export Plug-In . SVG Version: 6.00 Build 0)  -->
<!DOCTYPE svg PUBLIC "-//W3C//DTD SVG 1.1//EN" "http://www.w3.org/Graphics/SVG/1.1/DTD/svg11.dtd">
<svg version="1.1" id="Layer_1" xmlns="http://www.w3.org/2000/svg" xmlns:xlink="http://www.w3.org/1999/xlink" x="0px" y="0px"
	 viewBox="0 0 158 70" enable-background="new 0 0 158 70" xml:space="preserve">
<g>
	<g>
		<circle fill="#FFFFFF" cx="107.7" cy="27.4" r="12.8"/>
	</g>
	<g>
		<path fill="#FFFFFF" d="M55.7,33.4c0.7,0,1.4-0.1,2.1-0.2c0.7-0.1,1.3-0.3,1.9-0.6c0.5-0.3,1-0.7,1.3-1.2c0.3-0.5,0.5-1.1,0.5-1.9
			c0-0.6-0.2-1.1-0.5-1.6c-0.3-0.4-0.8-0.8-1.3-1.2c-0.5-0.4-1.1-0.7-1.7-1c-0.6-0.3-1.3-0.6-1.9-1c-0.8-0.5-1.6-1-2.3-1.6
			s-1.4-1.2-1.9-1.8S51,19.9,50.7,19c-0.3-0.8-0.5-1.8-0.5-2.9c0-1.4,0.3-2.7,0.8-3.9c0.5-1.2,1.3-2.2,2.4-3.1
			c1-0.9,2.4-1.6,3.9-2.1c1.6-0.5,3.4-0.8,5.6-0.8c1,0,1.9,0.1,2.8,0.3c0.9,0.2,1.8,0.4,2.6,0.6c0.8,0.2,1.5,0.5,2.2,0.8
			c0.7,0.3,1.2,0.6,1.7,0.9l-3,5.3c-0.8-0.6-1.7-1.1-2.8-1.5c-1.1-0.4-2.3-0.6-3.6-0.6c-0.7,0-1.4,0.1-2,0.2
			c-0.6,0.1-1.2,0.3-1.7,0.6c-0.5,0.3-0.9,0.7-1.2,1.1c-0.3,0.5-0.4,1-0.4,1.7c0,0.6,0.1,1.1,0.3,1.5c0.2,0.4,0.5,0.8,0.9,1.1
			c0.4,0.3,0.8,0.6,1.3,0.8c0.5,0.2,1,0.5,1.6,0.8c0.9,0.5,1.9,1,2.7,1.6c0.9,0.5,1.7,1.2,2.3,1.9c0.7,0.7,1.2,1.5,1.6,2.4
			c0.4,0.9,0.6,2,0.6,3.2c0,1.7-0.3,3.2-1,4.5c-0.6,1.3-1.5,2.3-2.7,3.2c-1.2,0.9-2.5,1.5-4.1,1.9c-1.6,0.4-3.4,0.6-5.3,0.6
			c-1.3,0-2.5-0.1-3.6-0.3s-2.1-0.5-3-0.8c-0.9-0.3-1.7-0.6-2.3-0.9c-0.7-0.3-1.2-0.6-1.6-0.9l3-5.4c0.4,0.2,0.8,0.5,1.3,0.8
			c0.5,0.3,1.1,0.5,1.8,0.8c0.7,0.2,1.3,0.4,2.1,0.6C54.1,33.3,54.9,33.4,55.7,33.4z"/>
		<path fill="#FFFFFF" d="M86.1,14.2c1.3,0,2.4,0.2,3.4,0.6c0.9,0.4,1.7,0.9,2.3,1.6s1.1,1.5,1.4,2.4c0.3,0.9,0.5,2,0.5,3.1
			c0,1.3-0.2,2.5-0.5,3.8l-3.1,13h-6.8l3-12.7c0.1-0.5,0.2-1.1,0.3-1.6s0.2-1.1,0.2-1.6c0-0.8-0.2-1.5-0.6-2
			c-0.4-0.6-1.2-0.8-2.4-0.8c-0.5,0-1,0-1.4,0.1c-0.4,0.1-0.9,0.1-1.3,0.2l-4.4,18.5h-6.8l8.2-34.3l7.1-1.1l-2.8,11.5
			c0.6-0.1,1.2-0.2,1.8-0.3C84.8,14.3,85.5,14.2,86.1,14.2z"/>
		<path fill="#FFFFFF" d="M138.2,24.6c-0.6,1.2-1.2,2.5-1.9,3.8c-0.7,1.3-1.4,2.6-2.2,3.8c-0.7,1.2-1.5,2.4-2.2,3.5
			c-0.7,1.1-1.3,2.1-1.9,2.9h-5.3c-0.2-1.3-0.5-2.8-0.8-4.6c-0.3-1.8-0.5-3.7-0.8-5.8c-0.2-2.1-0.5-4.3-0.7-6.6
			c-0.2-2.3-0.3-4.7-0.4-7.1h6.7c0,1.1,0,2.3,0,3.6c0,1.3,0,2.6,0.1,4c0,1.4,0.1,2.8,0.2,4.2c0.1,1.4,0.2,2.8,0.4,4.2
			c0.8-1.3,1.5-2.6,2.3-4c0.7-1.4,1.5-2.8,2.1-4.2c0.7-1.4,1.3-2.7,1.9-4.1c0.6-1.3,1.1-2.6,1.6-3.7h5.7c0,2.2,0,4.6,0.1,7.4
			c0.1,2.7,0.3,5.6,0.6,8.6c0.8-1.4,1.6-2.8,2.3-4.2c0.7-1.4,1.3-2.9,1.9-4.3c0.6-1.4,1.1-2.7,1.6-4c0.5-1.3,0.9-2.4,1.3-3.5h7.2
			c-0.6,1.5-1.3,3.2-2.2,5.1c-0.8,1.9-1.8,3.9-2.9,6s-2.3,4.2-3.7,6.4c-1.4,2.2-2.9,4.3-4.6,6.4h-5.3c-0.4-2.5-0.6-4.9-0.8-7.2
			S138.3,26.9,138.2,24.6z"/>
	</g>
	<g>
		<path fill="#FED700" d="M112.1,29.8c0,0,28.8,18.8,1.6,22.7S22.5,33,22.5,33l1.6-3.2l-10.3,0.8l5.7,8.5l1.4-2.8
			c0,0,73.6,23.3,96.4,16.9C140.3,46.8,112.1,29.8,112.1,29.8z"/>
	</g>
	<g>
		<path fill="#FFFFFF" d="M14.2,43c0.4-0.1,0.9-0.3,1.4-0.4s1-0.3,1.6-0.4s1.3-0.2,2.1-0.3s1.6-0.1,2.6-0.1c1.2,0,2.2,0.1,3,0.4
			s1.5,0.7,2.1,1.3c0.9-0.5,1.8-1,2.7-1.3c0.9-0.3,2-0.5,3.2-0.5c1.2,0,2.2,0.2,3,0.5c0.8,0.3,1.5,0.8,2.1,1.3
			c0.5,0.6,0.9,1.3,1.2,2.1c0.2,0.8,0.4,1.7,0.4,2.7c0,0.4,0,0.9-0.1,1.4c-0.1,0.5-0.2,1-0.3,1.5l-2.5,10.6h-5.6l2.5-10.4
			c0.1-0.3,0.2-0.7,0.2-1.2c0.1-0.4,0.1-0.9,0.1-1.3c0-0.7-0.2-1.3-0.5-1.8c-0.3-0.5-1-0.8-1.9-0.8c-0.5,0-1,0.1-1.5,0.3
			c-0.5,0.2-0.9,0.4-1.3,0.6c0,0.2,0.1,0.4,0.1,0.6s0,0.3,0,0.5c0,0.4,0,0.9-0.1,1.4s-0.2,1-0.3,1.5L26,61.7h-5.6l2.5-10.4
			c0.1-0.3,0.2-0.7,0.2-1.2c0.1-0.4,0.1-0.9,0.1-1.3c0-0.7-0.2-1.3-0.5-1.8c-0.3-0.5-1-0.8-1.9-0.8c-0.4,0-0.7,0-1,0.1
			c-0.3,0-0.6,0.1-1,0.2l-3.6,15.2H9.7L14.2,43z"/>
		<path fill="#FFFFFF" d="M60,42.1c-0.7,1.9-1.4,3.7-2.1,5.3s-1.5,3.2-2.2,4.7c-0.8,1.5-1.6,2.9-2.4,4.2c-0.8,1.3-1.7,2.7-2.6,4
			c-0.7,1-1.4,2-2.1,3c-0.7,1-1.5,1.9-2.4,2.7c-0.9,0.8-1.9,1.4-3,1.9c-1.1,0.5-2.3,0.7-3.8,0.7c-0.9,0-1.6-0.1-2.2-0.2
			c-0.6-0.2-1.2-0.4-1.8-0.7l1.7-4.4c0.5,0.2,0.9,0.4,1.3,0.5S39.4,64,40,64c0.9,0,1.7-0.3,2.5-0.8c0.8-0.6,1.4-1.3,2-2.3
			c-0.6-2.5-1.2-5.3-1.8-8.4c-0.5-3.1-0.9-6.6-1.1-10.5h5.7c0,1,0.1,2,0.1,3.2c0.1,1.2,0.2,2.3,0.3,3.5c0.1,1.2,0.2,2.3,0.3,3.5
			c0.1,1.1,0.3,2.1,0.4,3c1.2-1.8,2.2-3.8,3.2-6c0.9-2.2,1.8-4.6,2.6-7.2H60z"/>
		<path fill="#FFFFFF" d="M84.2,49.8c0,1.8-0.3,3.5-0.9,5s-1.4,2.8-2.5,3.9c-1.1,1.1-2.3,1.9-3.8,2.6c-1.5,0.6-3.1,0.9-4.8,0.9
			c-0.8,0-1.7-0.1-2.5-0.2L68,68.7h-5.5l6.2-25.9c1-0.3,2.1-0.6,3.4-0.8c1.3-0.2,2.7-0.4,4.2-0.4c1.4,0,2.6,0.2,3.6,0.6
			c1,0.4,1.8,1,2.5,1.7s1.1,1.6,1.4,2.6C84.1,47.6,84.2,48.6,84.2,49.8z M70.7,57.4c0.4,0.1,0.9,0.1,1.6,0.1c1,0,1.9-0.2,2.7-0.5
			c0.8-0.4,1.5-0.9,2-1.5s1-1.4,1.3-2.3c0.3-0.9,0.5-1.9,0.5-3c0-1.1-0.2-2-0.7-2.7c-0.5-0.7-1.3-1.1-2.5-1.1
			c-0.8,0-1.5,0.1-2.2,0.2L70.7,57.4z"/>
		<path fill="#FFFFFF" d="M98.9,46.9c-0.5-0.1-1-0.2-1.5-0.4c-0.5-0.1-1.2-0.2-2.1-0.2c-0.3,0-0.7,0-1.2,0.1c-0.4,0.1-0.8,0.1-1,0.2
			l-3.6,15.1h-5.6l4.5-18.6c1.1-0.3,2.3-0.7,3.6-1c1.3-0.3,2.8-0.5,4.5-0.5c0.6,0,1.3,0.1,2.1,0.2s1.4,0.3,2,0.5L98.9,46.9z"/>
		<path fill="#FFFFFF" d="M102.9,61.7h-5.5l4.7-19.6h5.6L102.9,61.7z M105.6,39.7c-0.8,0-1.5-0.2-2.1-0.7c-0.6-0.5-0.9-1.2-0.9-2.1
			c0-0.5,0.1-1,0.3-1.5c0.2-0.5,0.5-0.9,0.8-1.2c0.3-0.3,0.8-0.6,1.2-0.8c0.5-0.2,1-0.3,1.5-0.3c0.8,0,1.5,0.2,2.1,0.7
			c0.6,0.5,0.9,1.2,0.9,2.1c0,0.5-0.1,1-0.3,1.5c-0.2,0.5-0.5,0.9-0.8,1.2s-0.8,0.6-1.2,0.8C106.6,39.6,106.1,39.7,105.6,39.7z"/>
		<path fill="#FFFFFF" d="M107.2,53.9c0-1.7,0.3-3.3,0.8-4.8c0.5-1.5,1.3-2.8,2.4-3.9c1-1.1,2.3-2,3.7-2.7c1.5-0.6,3.1-1,4.9-1
			c1.1,0,2.1,0.1,3,0.3c0.9,0.2,1.7,0.5,2.4,0.8l-1.9,4.3c-0.5-0.2-1-0.4-1.5-0.5c-0.5-0.2-1.2-0.2-2-0.2c-1.9,0-3.3,0.6-4.4,1.9
			c-1.1,1.3-1.6,3-1.6,5.1c0,1.3,0.3,2.3,0.8,3.1s1.6,1.2,3,1.2c0.7,0,1.4-0.1,2.1-0.2c0.7-0.1,1.3-0.3,1.8-0.6l0.4,4.4
			c-0.7,0.3-1.5,0.5-2.3,0.7c-0.8,0.2-1.8,0.3-3,0.3c-1.5,0-2.9-0.2-3.9-0.7s-2-1.1-2.7-1.8s-1.2-1.6-1.5-2.7S107.2,55,107.2,53.9z"
			/>
		<path fill="#FFFFFF" d="M122.3,54c0-1.6,0.3-3.1,0.8-4.6s1.4-2.8,2.4-4c1-1.2,2.3-2.1,3.7-2.8c1.5-0.7,3.1-1.1,4.8-1.1
			c0.9,0,1.7,0.1,2.4,0.4s1.4,0.6,2,1.1c0.6,0.5,1,1.1,1.3,1.7c0.3,0.7,0.5,1.5,0.5,2.3c0,1.4-0.3,2.6-0.9,3.5
			c-0.6,1-1.5,1.8-2.6,2.4c-1.1,0.6-2.4,1.1-3.9,1.3c-1.5,0.3-3.2,0.4-5,0.4c0.2,1,0.6,1.8,1.1,2.2c0.6,0.4,1.5,0.7,2.8,0.7
			c0.8,0,1.6-0.1,2.4-0.2c0.8-0.1,1.6-0.3,2.3-0.6l0.4,4.4c-0.7,0.3-1.6,0.5-2.7,0.7c-1.1,0.2-2.3,0.3-3.5,0.3
			c-1.5,0-2.8-0.2-3.9-0.7s-1.9-1-2.6-1.8c-0.7-0.7-1.1-1.6-1.4-2.6S122.3,55.2,122.3,54z M133.2,46c-1.3,0-2.4,0.5-3.3,1.4
			c-1,0.9-1.6,2.1-1.9,3.6c1.5,0,2.8-0.2,3.7-0.4s1.7-0.5,2.2-0.8c0.5-0.3,0.9-0.6,1-1c0.2-0.3,0.3-0.7,0.3-1
			C135.2,46.6,134.5,46,133.2,46z"/>
		<path fill="#FFFFFF" d="M145.5,57.8c1.3,0,2.1-0.2,2.6-0.5s0.7-0.8,0.7-1.2c0-0.3,0-0.5-0.1-0.7c-0.1-0.2-0.2-0.4-0.4-0.6
			c-0.2-0.2-0.5-0.4-0.8-0.5c-0.3-0.2-0.8-0.4-1.3-0.7c-0.6-0.3-1.2-0.6-1.8-0.9c-0.5-0.3-1-0.7-1.4-1.1s-0.7-0.9-1-1.5
			c-0.2-0.6-0.4-1.2-0.4-2c0-2,0.7-3.6,2.2-4.8c1.5-1.2,3.6-1.8,6.5-1.8c1.3,0,2.5,0.1,3.6,0.4s1.9,0.6,2.5,1l-1.9,4.1
			c-0.5-0.3-1.2-0.5-2-0.8c-0.8-0.2-1.6-0.4-2.4-0.4c-0.3,0-0.7,0-1,0.1c-0.3,0-0.6,0.1-0.9,0.2c-0.3,0.1-0.5,0.3-0.7,0.5
			c-0.2,0.2-0.3,0.5-0.3,0.9c0,0.5,0.2,0.9,0.6,1.1c0.4,0.2,0.9,0.5,1.6,0.9c1,0.5,1.8,0.9,2.4,1.3c0.6,0.4,1.2,0.8,1.5,1.3
			s0.7,1,0.8,1.5c0.2,0.6,0.3,1.2,0.3,2c0,0.8-0.2,1.6-0.5,2.4c-0.3,0.8-0.9,1.5-1.6,2.1c-0.7,0.6-1.6,1.1-2.8,1.5
			c-1.1,0.4-2.5,0.6-4,0.6c-1,0-1.8-0.1-2.6-0.2s-1.5-0.3-2.1-0.5s-1.1-0.4-1.5-0.6c-0.4-0.2-0.7-0.4-1-0.5l1.9-4.3
			c0.4,0.2,1.1,0.6,2,0.9C143.1,57.6,144.2,57.8,145.5,57.8z"/>
	</g>
	<g>
		<path fill="#FED700" d="M24.2,29.7l-1.6,3.2c0,0,25.7,9.4,51.7,15.5v1.9C47.8,44.8,21,36.3,21,36.3l-1.4,2.8l-5.8-8.7L24.2,29.7z"
			/>
	</g>
	<g>
		<circle fill="#FED700" cx="107.7" cy="27.4" r="8"/>
	</g>
	<g>
		<g>
			<path fill="#448BCA" d="M107.7,20.6c3.7,0,6.8,3,6.8,6.8c0,3.7-3,6.8-6.8,6.8c-3.7,0-6.8-3-6.8-6.8
				C100.9,23.6,104,20.6,107.7,20.6z M113.5,27.4c0-3.2-2.6-5.8-5.8-5.8c-3.2,0-5.8,2.6-5.8,5.8c0,3.2,2.6,5.8,5.8,5.8
				C110.9,33.2,113.5,30.6,113.5,27.4z"/>
		</g>
		<g>
			<path fill="#448BCA" d="M107.3,22.5c0.3,0,0.5,0,0.8,0c0.1,0,0.1,0,0.1,0.1c0,0.2,0,0.4,0,0.6c0,0.2,0,0.2,0.2,0.2
				c0.3,0.1,0.7,0.2,0.9,0.4c0.4,0.3,0.7,0.7,0.8,1.2c0,0,0,0.1,0,0.1c-0.1,0-0.2,0.1-0.3,0.1c-0.3,0.1-0.6,0.2-0.9,0.4
				c-0.1,0-0.1,0-0.2-0.1c-0.1-0.3-0.3-0.6-0.6-0.8c-0.4-0.3-1.3-0.2-1.4,0.5c-0.1,0.3,0.1,0.6,0.4,0.7c0.3,0.2,0.6,0.3,1,0.4
				c0.4,0.2,0.9,0.3,1.3,0.6c0.6,0.4,0.8,0.9,0.9,1.6c0,0.6-0.1,1.1-0.4,1.5c-0.3,0.5-0.8,0.8-1.4,0.9c-0.1,0-0.2,0.1-0.4,0.1
				c-0.1,0-0.1,0.1-0.1,0.1c0,0.3,0,0.5,0,0.8c0,0,0,0.1,0,0.1c-0.3,0-0.6,0-0.9,0c0-0.1,0-0.1,0-0.2c0-0.3,0-0.5,0-0.8
				c0-0.1,0-0.1-0.1-0.1c-0.2-0.1-0.5-0.1-0.7-0.2c-0.5-0.2-0.9-0.6-1.2-1.1c-0.1-0.2-0.2-0.5-0.2-0.7c0,0,0-0.1,0-0.1
				c0.4-0.1,0.9-0.2,1.3-0.4c0,0.1,0.1,0.2,0.1,0.4c0.2,0.6,0.7,0.8,1.3,0.8c0.2,0,0.5-0.1,0.6-0.2c0.4-0.3,0.4-1.1-0.1-1.3
				c-0.4-0.2-0.9-0.4-1.3-0.5c-0.4-0.1-0.7-0.3-1-0.6c-0.5-0.4-0.7-1-0.7-1.6c0-0.7,0.2-1.2,0.7-1.7c0.3-0.3,0.7-0.4,1.1-0.5
				c0.2,0,0.2,0,0.2-0.2C107.3,23,107.3,22.8,107.3,22.5C107.3,22.6,107.3,22.5,107.3,22.5z"/>
		</g>
	</g>
</g>
</svg>
