<?xml version="1.0" encoding="utf-8"?>
<!-- Generator: Adobe Illustrator 17.1.0, SVG Export Plug-In . SVG Version: 6.00 Build 0)  -->
<!DOCTYPE svg PUBLIC "-//W3C//DTD SVG 1.1//EN" "http://www.w3.org/Graphics/SVG/1.1/DTD/svg11.dtd">
<svg version="1.1" id="Layer_1" xmlns="http://www.w3.org/2000/svg" xmlns:xlink="http://www.w3.org/1999/xlink" x="0px" y="0px"
	 viewBox="0 0 40 40" enable-background="new 0 0 40 40" xml:space="preserve">
<path fill="#94CEF0" d="M20,0C9,0,0,9,0,20.1C0,31,9,40,20,40c11,0,20-9,20-20C40,9,31,0,20,0z M9.3,12.9c0-1.7,0.5-2.9,1.4-3.9
	c0.4-0.4,0.9-0.9,1.3-1.3c0.9-0.9,2-0.9,2.9,0c0.9,0.9,1.9,1.9,2.8,2.8c0.7,0.7,0.8,1.5,0.3,2.4c-0.3,0.6-0.7,1.2-1,1.7
	c-0.4,0.7-0.3,1.2,0.2,1.8c2.1,2.1,4.3,4.3,6.4,6.4c0.5,0.5,1,0.6,1.7,0.2c0.6-0.3,1.2-0.7,1.9-1c0.7-0.4,1.5-0.4,2.1,0.2
	c1.1,1,2.2,2.1,3.2,3.2c0.7,0.7,0.6,1.8-0.1,2.5c-0.4,0.5-0.9,0.9-1.3,1.3c-1.8,1.7-4.1,2-6.3,0.8c-6.3-3.7-11.3-8.7-14.9-15
	C9.5,14.2,9.3,13.4,9.3,12.9z"/>
<path fill="#FFFFFF" d="M9.3,12.9c0,0.5,0.2,1.3,0.7,2.1c3.6,6.3,8.5,11.4,14.9,15c2.1,1.2,4.5,0.9,6.3-0.8c0.5-0.4,0.9-0.9,1.3-1.3
	c0.7-0.7,0.8-1.8,0.1-2.5c-1-1.1-2.1-2.2-3.2-3.2c-0.6-0.6-1.4-0.6-2.1-0.2c-0.6,0.3-1.2,0.7-1.9,1c-0.7,0.4-1.2,0.3-1.7-0.2
	c-2.1-2.1-4.3-4.3-6.4-6.4c-0.6-0.6-0.6-1.1-0.2-1.8c0.3-0.6,0.7-1.2,1-1.7c0.5-0.8,0.4-1.7-0.3-2.4c-0.9-0.9-1.9-1.9-2.8-2.8
	c-0.9-0.9-2-0.9-2.9,0c-0.4,0.4-0.9,0.9-1.3,1.3C9.7,10,9.3,11.2,9.3,12.9z"/>
</svg>
