<?xml version="1.0" encoding="utf-8"?>
<!-- Generator: Adobe Illustrator 17.1.0, SVG Export Plug-In . SVG Version: 6.00 Build 0)  -->
<!DOCTYPE svg PUBLIC "-//W3C//DTD SVG 1.1//EN" "http://www.w3.org/Graphics/SVG/1.1/DTD/svg11.dtd">
<svg version="1.1" id="Layer_1" xmlns="http://www.w3.org/2000/svg" xmlns:xlink="http://www.w3.org/1999/xlink" x="0px" y="0px"
	 viewBox="0 0 131.2 131.2" enable-background="new 0 0 131.2 131.2" xml:space="preserve">
<g>
	<path fill="#FFFFFF" d="M114.8,131.2H16.4c-9.1,0-16.4-7.3-16.4-16.4V16.4C0,7.3,7.3,0,16.4,0h98.4c9.1,0,16.4,7.3,16.4,16.4v98.4
		C131.2,123.9,123.9,131.2,114.8,131.2z"/>
</g>
<g>
	<defs>
		<path id="SVGID_9_" d="M114.8,131.2H16.4c-9.1,0-16.4-7.3-16.4-16.4V16.4C0,7.3,7.3,0,16.4,0h98.4c9.1,0,16.4,7.3,16.4,16.4v98.4
			C131.2,123.9,123.9,131.2,114.8,131.2z"/>
	</defs>
	<clipPath id="SVGID_2_">
		<use xlink:href="#SVGID_9_"  overflow="visible"/>
	</clipPath>
	<path clip-path="url(#SVGID_2_)" fill="#D2DE8C" d="M118.8,97.5C11.3,93-54,105.3-120.4,128.8c0,0-19.5,5,21.3,5s315.8,0,315.8,0
		S181,105.6,118.8,97.5z"/>
	<path clip-path="url(#SVGID_2_)" fill="#BACD79" d="M120.2,106.6C78.2,103.4-18,122.1-26.3,137.6l239.7-6.3c0,0-44-21.3-90.8-24.6
		C121.8,106.7,121,106.6,120.2,106.6z"/>
</g>
<path fill="none" d="M114.8,131.2H16.4c-9.1,0-16.4-7.3-16.4-16.4V16.4C0,7.3,7.3,0,16.4,0h98.4c9.1,0,16.4,7.3,16.4,16.4v98.4
	C131.2,123.9,123.9,131.2,114.8,131.2z"/>
<g>
	<polygon points="102.1,42.8 105.1,100.7 99.1,100.7 	"/>
	<g>
		<circle fill="#BCBCBC" cx="105.5" cy="65.8" r="3.9"/>
		<circle fill="#BCBCBC" cx="93.7" cy="63.7" r="5.5"/>
		<circle fill="#BCBCBC" cx="98.9" cy="67.9" r="6"/>
		<circle fill="#BCBCBC" cx="104.6" cy="55.9" r="7"/>
		<circle fill="#BCBCBC" cx="87.8" cy="59.6" r="5"/>
		<circle fill="#BCBCBC" cx="104.6" cy="80.8" r="5"/>
		<circle fill="#BCBCBC" cx="102.1" cy="84.5" r="2.8"/>
		<circle fill="#BCBCBC" cx="108.7" cy="85.3" r="2.8"/>
		<circle fill="#BCBCBC" cx="109.6" cy="79.8" r="2.8"/>
		<circle fill="#BCBCBC" cx="99.3" cy="79.8" r="2.8"/>
		<circle fill="#BCBCBC" cx="92.7" cy="58.8" r="4.9"/>
		<circle fill="#BCBCBC" cx="93.6" cy="53.4" r="6.6"/>
		<circle fill="#BCBCBC" cx="96.2" cy="47.2" r="4.4"/>
		<circle fill="#BCBCBC" cx="94.8" cy="46.1" r="5.6"/>
		<circle fill="#BCBCBC" cx="95.7" cy="39.3" r="3"/>
		<circle fill="#BCBCBC" cx="101.3" cy="46.5" r="5.2"/>
		<circle fill="#BCBCBC" cx="101.6" cy="39.3" r="4.9"/>
		<circle fill="#BCBCBC" cx="99.6" cy="50.5" r="5.4"/>
		<circle fill="#BCBCBC" cx="99.6" cy="59" r="6.8"/>
	</g>
	<polygon fill="#BCBCBC" points="93.6,100.9 93.6,84.1 95.2,82 96.8,84.1 96.8,100.9 	"/>
	<polygon fill="#BCBCBC" points="100,100.9 100,84.1 101.6,82 103.1,84.1 103.1,100.9 	"/>
	<polygon fill="#BCBCBC" points="106.3,100.9 106.3,84.1 107.9,82 109.5,84.1 109.5,100.9 	"/>
	<rect x="89.5" y="87.3" fill="#BCBCBC" width="24.1" height="3.2"/>
	<rect x="89.5" y="90.5" fill="#7C7C7C" width="24.1" height="0.5"/>
	<rect x="89.5" y="94.7" fill="#BCBCBC" width="24.1" height="3.2"/>
	<rect x="89.5" y="97.8" fill="#7C7C7C" width="24.1" height="0.5"/>
	<g>
		<polygon fill="#BCBCBC" points="21.7,100.9 21.7,84.1 23.3,82 24.9,84.1 24.9,100.9 		"/>
		<polygon fill="#BCBCBC" points="28.1,100.9 28.1,84.1 29.7,82 31.3,84.1 31.3,100.9 		"/>
		<polygon fill="#BCBCBC" points="34.4,100.9 34.4,84.1 36,82 37.6,84.1 37.6,100.9 		"/>
	</g>
	<rect x="17.6" y="87.3" fill="#BCBCBC" width="24.1" height="3.2"/>
	<rect x="17.6" y="90.5" fill="#7C7C7C" width="24.1" height="0.5"/>
	<rect x="17.6" y="94.7" fill="#BCBCBC" width="24.1" height="3.2"/>
	<rect x="17.6" y="97.8" fill="#7C7C7C" width="24.1" height="0.5"/>
	<g>
		<g>
			<defs>
				<polygon id="SVGID_11_" points="92.4,62.8 65.6,36.6 38.8,62.8 38.8,98.4 92.4,98.4 				"/>
			</defs>
			<clipPath id="SVGID_4_">
				<use xlink:href="#SVGID_11_"  overflow="visible"/>
			</clipPath>
			<rect x="38.8" y="96" clip-path="url(#SVGID_4_)" fill="#D3D3D3" width="53.7" height="2.4"/>
			<rect x="38.8" y="95.4" clip-path="url(#SVGID_4_)" fill="#B2B2B2" width="53.7" height="0.6"/>
			<rect x="38.8" y="93.1" clip-path="url(#SVGID_4_)" fill="#D3D3D3" width="53.7" height="2.4"/>
			<rect x="38.8" y="92.4" clip-path="url(#SVGID_4_)" fill="#B2B2B2" width="53.7" height="0.6"/>
			<rect x="38.8" y="90.1" clip-path="url(#SVGID_4_)" fill="#D3D3D3" width="53.7" height="2.4"/>
			<rect x="38.8" y="89.4" clip-path="url(#SVGID_4_)" fill="#B2B2B2" width="53.7" height="0.6"/>
			<rect x="38.8" y="87.1" clip-path="url(#SVGID_4_)" fill="#D3D3D3" width="53.7" height="2.4"/>
			<rect x="38.8" y="86.5" clip-path="url(#SVGID_4_)" fill="#B2B2B2" width="53.7" height="0.6"/>
			<rect x="38.8" y="84.1" clip-path="url(#SVGID_4_)" fill="#D3D3D3" width="53.7" height="2.4"/>
			<rect x="38.8" y="83.5" clip-path="url(#SVGID_4_)" fill="#B2B2B2" width="53.7" height="0.6"/>
			<rect x="38.8" y="81.1" clip-path="url(#SVGID_4_)" fill="#D3D3D3" width="53.7" height="2.4"/>
			<rect x="38.8" y="80.5" clip-path="url(#SVGID_4_)" fill="#B2B2B2" width="53.7" height="0.6"/>
			<rect x="38.8" y="78.1" clip-path="url(#SVGID_4_)" fill="#D3D3D3" width="53.7" height="2.4"/>
			<rect x="38.8" y="77.5" clip-path="url(#SVGID_4_)" fill="#B2B2B2" width="53.7" height="0.6"/>
			<rect x="38.8" y="75.1" clip-path="url(#SVGID_4_)" fill="#D3D3D3" width="53.7" height="2.4"/>
			<rect x="38.8" y="74.5" clip-path="url(#SVGID_4_)" fill="#B2B2B2" width="53.7" height="0.6"/>
			<rect x="38.8" y="72.1" clip-path="url(#SVGID_4_)" fill="#D3D3D3" width="53.7" height="2.4"/>
			<rect x="38.8" y="71.5" clip-path="url(#SVGID_4_)" fill="#B2B2B2" width="53.7" height="0.6"/>
			<rect x="38.8" y="69.1" clip-path="url(#SVGID_4_)" fill="#D3D3D3" width="53.7" height="2.4"/>
			<rect x="38.8" y="68.5" clip-path="url(#SVGID_4_)" fill="#B2B2B2" width="53.7" height="0.6"/>
			<rect x="38.8" y="66.2" clip-path="url(#SVGID_4_)" fill="#D3D3D3" width="53.7" height="2.4"/>
			<rect x="38.8" y="65.5" clip-path="url(#SVGID_4_)" fill="#B2B2B2" width="53.7" height="0.6"/>
			<rect x="38.8" y="63.2" clip-path="url(#SVGID_4_)" fill="#D3D3D3" width="53.7" height="2.4"/>
			<rect x="38.8" y="62.5" clip-path="url(#SVGID_4_)" fill="#B2B2B2" width="53.7" height="0.6"/>
			<rect x="38.8" y="60.2" clip-path="url(#SVGID_4_)" fill="#D3D3D3" width="53.7" height="2.4"/>
			<rect x="38.8" y="59.6" clip-path="url(#SVGID_4_)" fill="#B2B2B2" width="53.7" height="0.6"/>
			<rect x="38.8" y="57.2" clip-path="url(#SVGID_4_)" fill="#D3D3D3" width="53.7" height="2.4"/>
			<rect x="38.8" y="56.6" clip-path="url(#SVGID_4_)" fill="#B2B2B2" width="53.7" height="0.6"/>
			<rect x="38.8" y="54.2" clip-path="url(#SVGID_4_)" fill="#D3D3D3" width="53.7" height="2.4"/>
			<rect x="38.8" y="53.6" clip-path="url(#SVGID_4_)" fill="#B2B2B2" width="53.7" height="0.6"/>
			<rect x="38.8" y="51.2" clip-path="url(#SVGID_4_)" fill="#D3D3D3" width="53.7" height="2.4"/>
			<rect x="38.8" y="50.6" clip-path="url(#SVGID_4_)" fill="#B2B2B2" width="53.7" height="0.6"/>
			<rect x="38.8" y="48.2" clip-path="url(#SVGID_4_)" fill="#D3D3D3" width="53.7" height="2.4"/>
			<rect x="38.8" y="47.6" clip-path="url(#SVGID_4_)" fill="#B2B2B2" width="53.7" height="0.6"/>
			<rect x="38.8" y="45.2" clip-path="url(#SVGID_4_)" fill="#D3D3D3" width="53.7" height="2.4"/>
			<rect x="38.8" y="44.6" clip-path="url(#SVGID_4_)" fill="#B2B2B2" width="53.7" height="0.6"/>
			<rect x="38.8" y="42.2" clip-path="url(#SVGID_4_)" fill="#D3D3D3" width="53.7" height="2.4"/>
			<rect x="38.8" y="41.6" clip-path="url(#SVGID_4_)" fill="#B2B2B2" width="53.7" height="0.6"/>
			<rect x="38.8" y="39.3" clip-path="url(#SVGID_4_)" fill="#D3D3D3" width="53.7" height="2.4"/>
			<rect x="38.8" y="38.6" clip-path="url(#SVGID_4_)" fill="#B2B2B2" width="53.7" height="0.6"/>
			<rect x="38.8" y="36.3" clip-path="url(#SVGID_4_)" fill="#D3D3D3" width="53.7" height="2.4"/>
			<rect x="38.8" y="35.6" clip-path="url(#SVGID_4_)" fill="#B2B2B2" width="53.7" height="0.6"/>
		</g>
		<rect x="45.8" y="40.9" width="5.5" height="9.6"/>
		<polygon opacity="0.5" fill="#BBBBBB" points="92.4,65.8 92.4,62.8 65.6,36.6 38.8,62.8 38.8,65.8 65.6,39.5 		"/>
		<g>
			<path fill="#0A0A0A" d="M93.8,100.9v-1.4c0-0.6-0.6-1.2-1.3-1.2H38.7c-0.7,0-1.3,0.5-1.3,1.2v1.4H93.8z"/>
			<rect x="37.5" y="100.4" width="56.3" height="0.5"/>
		</g>
		<g>
			<g>
				<rect x="60" y="70" fill="#333333" width="11.2" height="28.4"/>
				<polygon fill="#0A0A0A" points="59.4,69.3 59.4,99 60.7,99 60.7,97.8 60.7,97.8 60.7,70.6 70.6,70.6 70.6,97.8 70.6,97.8 
					70.6,99 71.9,99 71.9,69.3 				"/>
			</g>
			<rect x="58.5" y="98.4" width="14.3" height="2.5"/>
			<g>
				<path fill="#333333" d="M69.4,81.8c-1.3,0.1-2.5,0.1-3.8,0.2c-1.3,0.1-2.5,0.1-3.8,0.1l-0.3,0l0-0.4c-0.1-3.2-0.1-6.3-0.1-9.5
					l0-0.5l0.5,0c2.5,0,5,0,7.5,0.1l0.4,0l0,0.4L69.7,77c0,0.8-0.1,1.6-0.1,2.4C69.5,80.2,69.5,81,69.4,81.8z M69.4,81.8
					c-0.1-0.8-0.1-1.6-0.1-2.4c0-0.8-0.1-1.6-0.1-2.4L69,72.3l0.4,0.4c-2.5,0.1-5,0.1-7.5,0.1l0.5-0.5c0,3.2,0,6.3-0.1,9.5l-0.3-0.3
					c1.3,0,2.5,0.1,3.8,0.1C66.9,81.6,68.2,81.7,69.4,81.8z"/>
			</g>
			<g>
				<path fill="#333333" d="M69.4,96c-1.3,0.1-2.5,0.1-3.8,0.2c-1.3,0.1-2.5,0.1-3.8,0.1l-0.3,0l0-0.4c-0.1-3.2-0.1-6.3-0.1-9.5
					l0-0.5l0.5,0c2.5,0,5,0,7.5,0.1l0.4,0l0,0.4l-0.1,4.7c0,0.8-0.1,1.6-0.1,2.4C69.5,94.5,69.5,95.3,69.4,96z M69.4,96
					c-0.1-0.8-0.1-1.6-0.1-2.4c0-0.8-0.1-1.6-0.1-2.4L69,86.6l0.4,0.4c-2.5,0.1-5,0.1-7.5,0.1l0.5-0.5c0,3.2,0,6.3-0.1,9.5l-0.3-0.3
					c1.3,0,2.5,0.1,3.8,0.1C66.9,95.9,68.2,95.9,69.4,96z"/>
			</g>
			<circle cx="69.1" cy="84.6" r="0.6"/>
		</g>
		<polygon fill="#333333" points="65.6,30.3 32.6,63.3 38.8,63.3 65.6,37.2 92.5,63.3 98.6,63.3 		"/>
		<path fill="#333333" d="M52.7,40.7c0,0.7-0.6,1.3-1.3,1.3h-5.8c-0.7,0-1.3-0.6-1.3-1.3v-2.1c0-0.7,0.6-1.3,1.3-1.3h5.8
			c0.7,0,1.3,0.6,1.3,1.3V40.7z"/>
		<g>
			<circle fill="#E0E0E0" cx="65.6" cy="56.9" r="7.6"/>
			<g>
				<rect x="65" y="49.3" fill="#0A0A0A" width="1.3" height="15.3"/>
			</g>
			<g>
				<rect x="58" y="56.2" fill="#0A0A0A" width="15.3" height="1.3"/>
			</g>
			<path d="M57.4,56.9c0-4.6,3.7-8.3,8.3-8.3c4.6,0,8.3,3.7,8.3,8.3c0,4.6-3.7,8.3-8.3,8.3C61.1,65.1,57.4,61.4,57.4,56.9z
				 M58.6,56.9c0,3.9,3.1,7,7,7c3.9,0,7-3.1,7-7c0-3.9-3.1-7-7-7C61.8,49.9,58.6,53,58.6,56.9z"/>
		</g>
		<g>
			<g>
				<g>
					<g>
						<rect x="44.6" y="74.2" fill="#E0E0E0" width="9.6" height="13.2"/>
						<path fill="#0A0A0A" d="M43.3,72.9v15.7h12.1V72.9H43.3z M54.2,87.4h-9.6V74.2h9.6V87.4z"/>
					</g>
					<polygon opacity="0.3" fill="#F7F7F7" points="54.2,74.5 44.6,81.9 44.6,84 54.2,76.7 					"/>
					<polygon opacity="0.3" fill="#F7F7F7" points="54.2,77.9 44.6,85.2 44.6,87.4 54.2,80 					"/>
				</g>
				<rect x="42.2" y="84.5" width="14.4" height="4.2"/>
			</g>
			<g>
				<g>
					<g>
						<rect x="77.1" y="74.2" fill="#E0E0E0" width="9.6" height="13.2"/>
						<path fill="#0A0A0A" d="M75.8,72.9v15.7h12.1V72.9H75.8z M86.6,87.4h-9.6V74.2h9.6V87.4z"/>
					</g>
					<polygon opacity="0.3" fill="#F7F7F7" points="86.6,74.5 77.1,81.9 77.1,84 86.6,76.7 					"/>
					<polygon opacity="0.3" fill="#F7F7F7" points="86.6,77.9 77.1,85.2 77.1,87.4 86.6,80 					"/>
				</g>
				<rect x="74.6" y="84.5" width="14.4" height="4.2"/>
			</g>
		</g>
		<g>
			<polygon fill="#6E6E6E" points="72.7,98.4 77.4,98.4 78.7,96 71.4,96 			"/>
			<path fill="#BCBCBC" d="M72.3,93.3c0,0,0-0.1,0-0.1c0-0.6,0.5-1.2,1.2-1.3c0.2-0.2,0.5-0.4,0.8-0.4c0.4,0,0.8,0.2,1,0.6
				c0.3-0.4,0.8-0.6,1.3-0.6c0.9,0,1.7,0.7,1.7,1.5c0,0.2,0,0.4-0.1,0.5c0.3,0.2,0.6,0.5,0.6,0.8c0,0.2,0,0.3-0.1,0.4h-1.2h-0.7
				h-0.1h-1.2h-0.2h-0.1h-0.8h0h-1h-0.6h-1.1c-0.1-0.2-0.2-0.3-0.2-0.6C71.3,93.8,71.7,93.4,72.3,93.3z"/>
			<rect x="70.9" y="94.8" fill="#9E9E9E" width="8.3" height="1.4"/>
		</g>
		<g>
			<polygon fill="#6E6E6E" points="53.8,98.4 58.6,98.4 59.8,96 52.6,96 			"/>
			<path fill="#BCBCBC" d="M53.5,93.3c0,0,0-0.1,0-0.1c0-0.6,0.5-1.2,1.2-1.3c0.2-0.2,0.5-0.4,0.8-0.4c0.4,0,0.8,0.2,1,0.6
				c0.3-0.4,0.8-0.6,1.3-0.6c0.9,0,1.7,0.7,1.7,1.5c0,0.2,0,0.4-0.1,0.5c0.3,0.2,0.6,0.5,0.6,0.8c0,0.2,0,0.3-0.1,0.4h-1.2h-0.7
				h-0.1h-1.2h-0.2h-0.1h-0.8h0h-1h-0.6h-1.1c-0.1-0.2-0.2-0.3-0.2-0.6C52.5,93.8,52.9,93.4,53.5,93.3z"/>
			<rect x="52" y="94.8" fill="#9E9E9E" width="8.3" height="1.4"/>
		</g>
	</g>
</g>
<g>
	<polygon fill="#412312" points="102.1,42.8 105.1,100.7 99.1,100.7 	"/>
	<g>
		<circle fill="#8CC541" cx="105.5" cy="65.8" r="3.9"/>
		<circle fill="#8CC541" cx="93.7" cy="63.7" r="5.5"/>
		<circle fill="#8CC541" cx="98.9" cy="67.9" r="6"/>
		<circle fill="#8CC541" cx="104.6" cy="55.9" r="7"/>
		<circle fill="#8CC541" cx="87.8" cy="59.6" r="5"/>
		<circle fill="#8CC541" cx="104.6" cy="80.8" r="5"/>
		<circle fill="#8CC541" cx="102.1" cy="84.5" r="2.8"/>
		<circle fill="#8CC541" cx="108.7" cy="85.3" r="2.8"/>
		<circle fill="#8CC541" cx="109.6" cy="79.8" r="2.8"/>
		<circle fill="#8CC541" cx="99.3" cy="79.8" r="2.8"/>
		<circle fill="#8CC541" cx="92.7" cy="58.8" r="4.9"/>
		<circle fill="#8CC541" cx="93.6" cy="53.4" r="6.6"/>
		<circle fill="#8CC541" cx="96.2" cy="47.2" r="4.4"/>
		<circle fill="#8CC541" cx="94.8" cy="46.1" r="5.6"/>
		<circle fill="#8CC541" cx="95.7" cy="39.3" r="3"/>
		<circle fill="#8CC541" cx="101.3" cy="46.5" r="5.2"/>
		<circle fill="#8CC541" cx="101.6" cy="39.3" r="4.9"/>
		<circle fill="#8CC541" cx="99.6" cy="50.5" r="5.4"/>
		<circle fill="#8CC541" cx="99.6" cy="59" r="6.8"/>
	</g>
	<polygon fill="#E5B683" points="93.6,100.9 93.6,84.1 95.2,82 96.8,84.1 96.8,100.9 	"/>
	<polygon fill="#E5B683" points="100,100.9 100,84.1 101.6,82 103.1,84.1 103.1,100.9 	"/>
	<polygon fill="#E5B683" points="106.3,100.9 106.3,84.1 107.9,82 109.5,84.1 109.5,100.9 	"/>
	<rect x="89.5" y="87.3" fill="#E5B683" width="24.1" height="3.2"/>
	<rect x="89.5" y="90.5" fill="#A88460" width="24.1" height="0.5"/>
	<rect x="89.5" y="94.7" fill="#E5B683" width="24.1" height="3.2"/>
	<rect x="89.5" y="97.8" fill="#A88460" width="24.1" height="0.5"/>
	<g>
		<polygon fill="#E5B683" points="21.7,100.9 21.7,84.1 23.3,82 24.9,84.1 24.9,100.9 		"/>
		<polygon fill="#E5B683" points="28.1,100.9 28.1,84.1 29.7,82 31.3,84.1 31.3,100.9 		"/>
		<polygon fill="#E5B683" points="34.4,100.9 34.4,84.1 36,82 37.6,84.1 37.6,100.9 		"/>
	</g>
	<rect x="17.6" y="87.3" fill="#E5B683" width="24.1" height="3.2"/>
	<rect x="17.6" y="90.5" fill="#A88460" width="24.1" height="0.5"/>
	<rect x="17.6" y="94.7" fill="#E5B683" width="24.1" height="3.2"/>
	<rect x="17.6" y="97.8" fill="#A88460" width="24.1" height="0.5"/>
	<g>
		<g>
			<defs>
				<polygon id="SVGID_13_" points="92.4,62.8 65.6,36.6 38.8,62.8 38.8,98.4 92.4,98.4 				"/>
			</defs>
			<clipPath id="SVGID_6_">
				<use xlink:href="#SVGID_13_"  overflow="visible"/>
			</clipPath>
			<rect x="38.8" y="96" clip-path="url(#SVGID_6_)" fill="#F2D185" width="53.7" height="2.4"/>
			<rect x="38.8" y="95.4" clip-path="url(#SVGID_6_)" fill="#D2B163" width="53.7" height="0.6"/>
			<rect x="38.8" y="93.1" clip-path="url(#SVGID_6_)" fill="#F2D185" width="53.7" height="2.4"/>
			<rect x="38.8" y="92.4" clip-path="url(#SVGID_6_)" fill="#D2B163" width="53.7" height="0.6"/>
			<rect x="38.8" y="90.1" clip-path="url(#SVGID_6_)" fill="#F2D185" width="53.7" height="2.4"/>
			<rect x="38.8" y="89.4" clip-path="url(#SVGID_6_)" fill="#D2B163" width="53.7" height="0.6"/>
			<rect x="38.8" y="87.1" clip-path="url(#SVGID_6_)" fill="#F2D185" width="53.7" height="2.4"/>
			<rect x="38.8" y="86.5" clip-path="url(#SVGID_6_)" fill="#D2B163" width="53.7" height="0.6"/>
			<rect x="38.8" y="84.1" clip-path="url(#SVGID_6_)" fill="#F2D185" width="53.7" height="2.4"/>
			<rect x="38.8" y="83.5" clip-path="url(#SVGID_6_)" fill="#D2B163" width="53.7" height="0.6"/>
			<rect x="38.8" y="81.1" clip-path="url(#SVGID_6_)" fill="#F2D185" width="53.7" height="2.4"/>
			<rect x="38.8" y="80.5" clip-path="url(#SVGID_6_)" fill="#D2B163" width="53.7" height="0.6"/>
			<rect x="38.8" y="78.1" clip-path="url(#SVGID_6_)" fill="#F2D185" width="53.7" height="2.4"/>
			<rect x="38.8" y="77.5" clip-path="url(#SVGID_6_)" fill="#D2B163" width="53.7" height="0.6"/>
			<rect x="38.8" y="75.1" clip-path="url(#SVGID_6_)" fill="#F2D185" width="53.7" height="2.4"/>
			<rect x="38.8" y="74.5" clip-path="url(#SVGID_6_)" fill="#D2B163" width="53.7" height="0.6"/>
			<rect x="38.8" y="72.1" clip-path="url(#SVGID_6_)" fill="#F2D185" width="53.7" height="2.4"/>
			<rect x="38.8" y="71.5" clip-path="url(#SVGID_6_)" fill="#D2B163" width="53.7" height="0.6"/>
			<rect x="38.8" y="69.1" clip-path="url(#SVGID_6_)" fill="#F2D185" width="53.7" height="2.4"/>
			<rect x="38.8" y="68.5" clip-path="url(#SVGID_6_)" fill="#D2B163" width="53.7" height="0.6"/>
			<rect x="38.8" y="66.2" clip-path="url(#SVGID_6_)" fill="#F2D185" width="53.7" height="2.4"/>
			<rect x="38.8" y="65.5" clip-path="url(#SVGID_6_)" fill="#D2B163" width="53.7" height="0.6"/>
			<rect x="38.8" y="63.2" clip-path="url(#SVGID_6_)" fill="#F2D185" width="53.7" height="2.4"/>
			<rect x="38.8" y="62.5" clip-path="url(#SVGID_6_)" fill="#D2B163" width="53.7" height="0.6"/>
			<rect x="38.8" y="60.2" clip-path="url(#SVGID_6_)" fill="#F2D185" width="53.7" height="2.4"/>
			<rect x="38.8" y="59.6" clip-path="url(#SVGID_6_)" fill="#D2B163" width="53.7" height="0.6"/>
			<rect x="38.8" y="57.2" clip-path="url(#SVGID_6_)" fill="#F2D185" width="53.7" height="2.4"/>
			<rect x="38.8" y="56.6" clip-path="url(#SVGID_6_)" fill="#D2B163" width="53.7" height="0.6"/>
			<rect x="38.8" y="54.2" clip-path="url(#SVGID_6_)" fill="#F2D185" width="53.7" height="2.4"/>
			<rect x="38.8" y="53.6" clip-path="url(#SVGID_6_)" fill="#D2B163" width="53.7" height="0.6"/>
			<rect x="38.8" y="51.2" clip-path="url(#SVGID_6_)" fill="#F2D185" width="53.7" height="2.4"/>
			<rect x="38.8" y="50.6" clip-path="url(#SVGID_6_)" fill="#D2B163" width="53.7" height="0.6"/>
			<rect x="38.8" y="48.2" clip-path="url(#SVGID_6_)" fill="#F2D185" width="53.7" height="2.4"/>
			<rect x="38.8" y="47.6" clip-path="url(#SVGID_6_)" fill="#D2B163" width="53.7" height="0.6"/>
			<rect x="38.8" y="45.2" clip-path="url(#SVGID_6_)" fill="#F2D185" width="53.7" height="2.4"/>
			<rect x="38.8" y="44.6" clip-path="url(#SVGID_6_)" fill="#D2B163" width="53.7" height="0.6"/>
			<rect x="38.8" y="42.2" clip-path="url(#SVGID_6_)" fill="#F2D185" width="53.7" height="2.4"/>
			<rect x="38.8" y="41.6" clip-path="url(#SVGID_6_)" fill="#D2B163" width="53.7" height="0.6"/>
			<rect x="38.8" y="39.3" clip-path="url(#SVGID_6_)" fill="#F2D185" width="53.7" height="2.4"/>
			<rect x="38.8" y="38.6" clip-path="url(#SVGID_6_)" fill="#D2B163" width="53.7" height="0.6"/>
			<rect x="38.8" y="36.3" clip-path="url(#SVGID_6_)" fill="#F2D185" width="53.7" height="2.4"/>
			<rect x="38.8" y="35.6" clip-path="url(#SVGID_6_)" fill="#D2B163" width="53.7" height="0.6"/>
		</g>
		<rect x="45.8" y="40.9" fill="#1A1A1A" width="5.5" height="9.6"/>
		<polygon opacity="0.5" fill="#B3B3B3" points="92.4,65.8 92.4,62.8 65.6,36.6 38.8,62.8 38.8,65.8 65.6,39.5 		"/>
		<g>
			<path fill="#4E4E4E" d="M93.8,100.9v-1.4c0-0.6-0.6-1.2-1.3-1.2H38.7c-0.7,0-1.3,0.5-1.3,1.2v1.4H93.8z"/>
			<rect x="37.5" y="100.4" fill="#1A1A1A" width="56.3" height="0.5"/>
		</g>
		<g>
			<g>
				<rect x="60" y="70" fill="#C0282D" width="11.2" height="28.4"/>
				<polygon fill="#4E4E4E" points="59.4,69.3 59.4,99 60.7,99 60.7,97.8 60.7,97.8 60.7,70.6 70.6,70.6 70.6,97.8 70.6,97.8 
					70.6,99 71.9,99 71.9,69.3 				"/>
			</g>
			<rect x="58.5" y="98.4" fill="#1A1A1A" width="14.3" height="2.5"/>
			<g>
				<path fill="#C0282D" d="M69.4,81.8c-1.3,0.1-2.5,0.1-3.8,0.2c-1.3,0.1-2.5,0.1-3.8,0.1l-0.3,0l0-0.4c-0.1-3.2-0.1-6.3-0.1-9.5
					l0-0.5l0.5,0c2.5,0,5,0,7.5,0.1l0.4,0l0,0.4L69.7,77c0,0.8-0.1,1.6-0.1,2.4C69.5,80.2,69.5,81,69.4,81.8z M69.4,81.8
					c-0.1-0.8-0.1-1.6-0.1-2.4c0-0.8-0.1-1.6-0.1-2.4L69,72.3l0.4,0.4c-2.5,0.1-5,0.1-7.5,0.1l0.5-0.5c0,3.2,0,6.3-0.1,9.5l-0.3-0.3
					c1.3,0,2.5,0.1,3.8,0.1C66.9,81.6,68.2,81.7,69.4,81.8z"/>
			</g>
			<g>
				<path fill="#C0282D" d="M69.4,96c-1.3,0.1-2.5,0.1-3.8,0.2c-1.3,0.1-2.5,0.1-3.8,0.1l-0.3,0l0-0.4c-0.1-3.2-0.1-6.3-0.1-9.5
					l0-0.5l0.5,0c2.5,0,5,0,7.5,0.1l0.4,0l0,0.4l-0.1,4.7c0,0.8-0.1,1.6-0.1,2.4C69.5,94.5,69.5,95.3,69.4,96z M69.4,96
					c-0.1-0.8-0.1-1.6-0.1-2.4c0-0.8-0.1-1.6-0.1-2.4L69,86.6l0.4,0.4c-2.5,0.1-5,0.1-7.5,0.1l0.5-0.5c0,3.2,0,6.3-0.1,9.5l-0.3-0.3
					c1.3,0,2.5,0.1,3.8,0.1C66.9,95.9,68.2,95.9,69.4,96z"/>
			</g>
			<circle fill="#1A1A1A" cx="69.1" cy="84.6" r="0.6"/>
		</g>
		<polygon fill="#C0282D" points="65.6,30.3 32.6,63.3 38.8,63.3 65.6,37.2 92.5,63.3 98.6,63.3 		"/>
		<path fill="#C0282D" d="M52.7,40.7c0,0.7-0.6,1.3-1.3,1.3h-5.8c-0.7,0-1.3-0.6-1.3-1.3v-2.1c0-0.7,0.6-1.3,1.3-1.3h5.8
			c0.7,0,1.3,0.6,1.3,1.3V40.7z"/>
		<g>
			<circle fill="#A0D6ED" cx="65.6" cy="56.9" r="7.6"/>
			<g>
				<rect x="65" y="49.3" fill="#4E4E4E" width="1.3" height="15.3"/>
			</g>
			<g>
				<rect x="58" y="56.2" fill="#4E4E4E" width="15.3" height="1.3"/>
			</g>
			<path fill="#1A1A1A" d="M57.4,56.9c0-4.6,3.7-8.3,8.3-8.3c4.6,0,8.3,3.7,8.3,8.3c0,4.6-3.7,8.3-8.3,8.3
				C61.1,65.1,57.4,61.4,57.4,56.9z M58.6,56.9c0,3.9,3.1,7,7,7c3.9,0,7-3.1,7-7c0-3.9-3.1-7-7-7C61.8,49.9,58.6,53,58.6,56.9z"/>
		</g>
		<g>
			<g>
				<g>
					<g>
						<rect x="44.6" y="74.2" fill="#A0D6ED" width="9.6" height="13.2"/>
						<path fill="#4E4E4E" d="M43.3,72.9v15.7h12.1V72.9H43.3z M54.2,87.4h-9.6V74.2h9.6V87.4z"/>
					</g>
					<polygon opacity="0.3" fill="#F2F2F2" points="54.2,74.5 44.6,81.9 44.6,84 54.2,76.7 					"/>
					<polygon opacity="0.3" fill="#F2F2F2" points="54.2,77.9 44.6,85.2 44.6,87.4 54.2,80 					"/>
				</g>
				<rect x="42.2" y="84.5" fill="#1A1A1A" width="14.4" height="4.2"/>
			</g>
			<g>
				<g>
					<g>
						<rect x="77.1" y="74.2" fill="#A0D6ED" width="9.6" height="13.2"/>
						<path fill="#4E4E4E" d="M75.8,72.9v15.7h12.1V72.9H75.8z M86.6,87.4h-9.6V74.2h9.6V87.4z"/>
					</g>
					<polygon opacity="0.3" fill="#F2F2F2" points="86.6,74.5 77.1,81.9 77.1,84 86.6,76.7 					"/>
					<polygon opacity="0.3" fill="#F2F2F2" points="86.6,77.9 77.1,85.2 77.1,87.4 86.6,80 					"/>
				</g>
				<rect x="74.6" y="84.5" fill="#1A1A1A" width="14.4" height="4.2"/>
			</g>
		</g>
		<g>
			<polygon fill="#A57C52" points="72.7,98.4 77.4,98.4 78.7,96 71.4,96 			"/>
			<path fill="#8CC541" d="M72.3,93.3c0,0,0-0.1,0-0.1c0-0.6,0.5-1.2,1.2-1.3c0.2-0.2,0.5-0.4,0.8-0.4c0.4,0,0.8,0.2,1,0.6
				c0.3-0.4,0.8-0.6,1.3-0.6c0.9,0,1.7,0.7,1.7,1.5c0,0.2,0,0.4-0.1,0.5c0.3,0.2,0.6,0.5,0.6,0.8c0,0.2,0,0.3-0.1,0.4h-1.2h-0.7
				h-0.1h-1.2h-0.2h-0.1h-0.8h0h-1h-0.6h-1.1c-0.1-0.2-0.2-0.3-0.2-0.6C71.3,93.8,71.7,93.4,72.3,93.3z"/>
			<rect x="70.9" y="94.8" fill="#C49B6D" width="8.3" height="1.4"/>
		</g>
		<g>
			<polygon fill="#A57C52" points="53.8,98.4 58.6,98.4 59.8,96 52.6,96 			"/>
			<path fill="#8CC541" d="M53.5,93.3c0,0,0-0.1,0-0.1c0-0.6,0.5-1.2,1.2-1.3c0.2-0.2,0.5-0.4,0.8-0.4c0.4,0,0.8,0.2,1,0.6
				c0.3-0.4,0.8-0.6,1.3-0.6c0.9,0,1.7,0.7,1.7,1.5c0,0.2,0,0.4-0.1,0.5c0.3,0.2,0.6,0.5,0.6,0.8c0,0.2,0,0.3-0.1,0.4h-1.2h-0.7
				h-0.1h-1.2h-0.2h-0.1h-0.8h0h-1h-0.6h-1.1c-0.1-0.2-0.2-0.3-0.2-0.6C52.5,93.8,52.9,93.4,53.5,93.3z"/>
			<rect x="52" y="94.8" fill="#C49B6D" width="8.3" height="1.4"/>
		</g>
	</g>
</g>
</svg>
