<svg xmlns="http://www.w3.org/2000/svg" xmlns:xlink="http://www.w3.org/1999/xlink" viewBox="0 0 131.2 131.2"><path fill="#FFF" d="M114.8 131.2H16.4c-9.1 0-16.4-7.3-16.4-16.4V16.4C0 7.3 7.3 0 16.4 0h98.4c9.1 0 16.4 7.3 16.4 16.4v98.4c0 9.1-7.3 16.4-16.4 16.4z"/><defs><path id="a" d="M114.8 131.2H16.4c-9.1 0-16.4-7.3-16.4-16.4V16.4C0 7.3 7.3 0 16.4 0h98.4c9.1 0 16.4 7.3 16.4 16.4v98.4c0 9.1-7.3 16.4-16.4 16.4z"/></defs><clipPath id="b"><use xlink:href="#a" overflow="visible"/></clipPath><path clip-path="url(#b)" fill="#D2DE8C" d="M118.8 97.5C11.3 93-54 105.3-120.4 128.8c0 0-19.5 5 21.3 5h315.8s-35.7-28.2-97.9-36.3z"/><path clip-path="url(#b)" fill="#BACD79" d="M120.2 106.6c-42-3.2-138.2 15.5-146.5 31l239.7-6.3s-44-21.3-90.8-24.6c-.8 0-1.6-.1-2.4-.1z"/><g clip-path="url(#b)"><path fill="#99957A" d="M27.8 66.7h38.3v35H27.8z"/><path fill="#1A1A1A" d="M64.7 58.4H29.1l-1.3 8.3h38.3zm-36.9 43.3h38.3v1.1H27.8z"/><path fill="#4A3D47" d="M43.7 84h6.4v16.3h-6.4z"/><path fill="#1A1A1A" d="M50.5 83.6v17h-.7V84.3h-5.7v16.3h-.8v-17z"/><path fill="#1A1A1A" d="M42.8 100.2H51v1.4h-8.2z"/><path fill="#7C708A" d="M44.8 90.7c1.4-.1 2.9-.2 4.3-.3l-.3.3c-.1-1.8-.1-3.6-.1-5.4l.4.4c-1.4 0-2.9 0-4.3-.1l.4-.4c-.1 1.9-.3 3.7-.4 5.5zm0 0c-.2-1.8-.3-3.6-.4-5.4V85h.4c1.4 0 2.9-.1 4.3-.1h.4v.4c0 1.8 0 3.6-.1 5.4v.3h-.3c-1.5 0-2.9-.1-4.3-.3zm0 8.2c1.4-.1 2.9-.2 4.3-.3l-.3.3c-.1-1.8-.1-3.6-.1-5.4l.4.4c-1.4 0-2.9 0-4.3-.1l.4-.4c-.1 1.9-.3 3.7-.4 5.5zm0 0c-.2-1.8-.3-3.6-.4-5.4v-.3h.4c1.4 0 2.9-.1 4.3-.1h.4v.4c0 1.8 0 3.6-.1 5.4v.3h-.3c-1.5-.1-2.9-.2-4.3-.3z"/><circle fill="#1A1A1A" cx="44.9" cy="92.4" r=".4"/><path fill="#A0D6ED" d="M31.4 84.1h6.2v8.5h-6.2z"/><path fill="#4E4E4E" d="M30.5 83.2v10.1h7.8V83.2h-7.8zm.9.9h6.2v8.5h-6.2v-8.5z"/><path opacity=".3" fill="#F2F2F2" d="M31.4 84.3l6.2 4.7v1.4l-6.2-4.8zm0 2.1l6.2 4.8v1.3l-6.2-4.7z"/><path fill="#1A1A1A" d="M29.6 90.7h9.5v2.7h-9.5z"/><path fill="#A0D6ED" d="M56.4 84.1h6.2v8.5h-6.2z"/><path fill="#4E4E4E" d="M55.6 83.2v10.1h7.8V83.2h-7.8zm.8.9h6.2v8.5h-6.2v-8.5z"/><path opacity=".3" fill="#F2F2F2" d="M56.4 84.3l6.2 4.7v1.4l-6.2-4.8zm0 2.1l6.2 4.8v1.3l-6.2-4.7z"/><path fill="#1A1A1A" d="M54.7 90.7h9.5v2.7h-9.5z"/><path fill="#A0D6ED" d="M38.2 68.2h6.2v8.5h-6.2z"/><path fill="#4E4E4E" d="M37.4 67.4v10.1h7.8V67.4h-7.8zm.8.8h6.2v8.5h-6.2v-8.5z"/><path opacity=".3" fill="#F2F2F2" d="M38.2 68.5l6.2 4.7v1.4l-6.2-4.8zm0 2.1l6.2 4.8v1.3L38.2 72z"/><path fill="#A0D6ED" d="M31.2 68.2h6.2v8.5h-6.2z"/><path fill="#4E4E4E" d="M30.4 67.4v10.1h7.8V67.4h-7.8zm.8.8h6.2v8.5h-6.2v-8.5z"/><path opacity=".3" fill="#F2F2F2" d="M31.2 68.5l6.2 4.7v1.4l-6.2-4.8zm0 2.1l6.2 4.8v1.3L31.2 72z"/><path fill="#1A1A1A" d="M29.6 74.9h16.3v2.7H29.6z"/><path fill="#A0D6ED" d="M56.4 68.2h6.2v8.5h-6.2z"/><path fill="#4E4E4E" d="M55.6 67.4v10.1h7.8V67.4h-7.8zm.8.8h6.2v8.5h-6.2v-8.5z"/><path opacity=".3" fill="#F2F2F2" d="M56.4 68.5l6.2 4.7v1.4l-6.2-4.8zm0 2.1l6.2 4.8v1.3L56.4 72z"/><path fill="#A0D6ED" d="M49.4 68.2h6.2v8.5h-6.2z"/><path fill="#4E4E4E" d="M48.5 67.4v10.1h7.8V67.4h-7.8zm.9.8h6.2v8.5h-6.2v-8.5z"/><path opacity=".3" fill="#F2F2F2" d="M49.4 68.5l6.2 4.7v1.4l-6.2-4.8zm0 2.1l6.2 4.8v1.3L49.4 72z"/><path fill="#1A1A1A" d="M47.8 74.9h16.3v2.7H47.8z"/><path fill="#AEAA8C" d="M61.4 30.2h38.3v71.5H61.4z"/><path fill="#1A1A1A" d="M98.3 21.8H62.7l-1.3 8.4h38.3zm-36.9 79.9h38.3v1.1H61.4z"/><path fill="#4A3D47" d="M77.3 84h6.4v16.3h-6.4z"/><path fill="#1A1A1A" d="M84.1 83.6v17h-.7V84.3h-5.7v16.3h-.8v-17z"/><path fill="#1A1A1A" d="M76.4 100.2h8.2v1.4h-8.2z"/><path fill="#7C708A" d="M78.4 90.7c1.4-.1 2.9-.2 4.3-.3l-.3.3c-.1-1.8-.1-3.6-.1-5.4l.4.4c-1.4 0-2.9 0-4.3-.1l.4-.4c-.1 1.9-.3 3.7-.4 5.5zm0 0c-.2-1.8-.3-3.6-.4-5.4V85h.4c1.4 0 2.9-.1 4.3-.1h.4v.4c0 1.8 0 3.6-.1 5.4v.3h-.3c-1.5 0-2.9-.1-4.3-.3zm0 8.2c1.4-.1 2.9-.2 4.3-.3l-.3.3c-.1-1.8-.1-3.6-.1-5.4l.4.4c-1.4 0-2.9 0-4.3-.1l.4-.4c-.1 1.9-.3 3.7-.4 5.5zm0 0c-.2-1.8-.3-3.6-.4-5.4v-.3h.4c1.4 0 2.9-.1 4.3-.1h.4v.4c0 1.8 0 3.6-.1 5.4v.3h-.3c-1.5-.1-2.9-.2-4.3-.3z"/><circle fill="#1A1A1A" cx="78.5" cy="92.4" r=".4"/><path fill="#A0D6ED" d="M65 84.1h6.2v8.5H65z"/><path fill="#4E4E4E" d="M64.1 83.2v10.1H72V83.2h-7.9zm.9.9h6.2v8.5H65v-8.5z"/><path opacity=".3" fill="#F2F2F2" d="M65 84.3l6.2 4.7v1.4L65 85.6zm0 2.1l6.2 4.8v1.3L65 87.8z"/><path fill="#1A1A1A" d="M63.2 90.7h9.5v2.7h-9.5z"/><path fill="#A0D6ED" d="M90 84.1h6.2v8.5H90z"/><path fill="#4E4E4E" d="M89.2 83.2v10.1H97V83.2h-7.8zm.8.9h6.2v8.5H90v-8.5z"/><path opacity=".3" fill="#F2F2F2" d="M90 84.3l6.2 4.7v1.4L90 85.6zm0 2.1l6.2 4.8v1.3L90 87.8z"/><path fill="#1A1A1A" d="M88.3 90.7h9.5v2.7h-9.5z"/><path fill="#A0D6ED" d="M71.8 68.2H78v8.5h-6.2z"/><path fill="#4E4E4E" d="M71 67.4v10.1h7.8V67.4H71zm.8.8H78v8.5h-6.2v-8.5z"/><path opacity=".3" fill="#F2F2F2" d="M71.8 68.5l6.2 4.7v1.4l-6.2-4.8zm0 2.1l6.2 4.8v1.3L71.8 72z"/><path fill="#A0D6ED" d="M64.8 68.2H71v8.5h-6.2z"/><path fill="#4E4E4E" d="M64 67.4v10.1h7.8V67.4H64zm.8.8H71v8.5h-6.2v-8.5z"/><path opacity=".3" fill="#F2F2F2" d="M64.8 68.5l6.2 4.7v1.4l-6.2-4.8zm0 2.1l6.2 4.8v1.3L64.8 72z"/><path fill="#1A1A1A" d="M63.2 74.9h16.3v2.7H63.2z"/><path fill="#A0D6ED" d="M90 68.2h6.2v8.5H90z"/><path fill="#4E4E4E" d="M89.2 67.4v10.1H97V67.4h-7.8zm.8.8h6.2v8.5H90v-8.5z"/><path opacity=".3" fill="#F2F2F2" d="M90 68.5l6.2 4.7v1.4L90 69.8zm0 2.1l6.2 4.8v1.3L90 72z"/><path fill="#A0D6ED" d="M83 68.2h6.2v8.5H83z"/><path fill="#4E4E4E" d="M82.1 67.4v10.1H90V67.4h-7.9zm.9.8h6.2v8.5H83v-8.5z"/><path opacity=".3" fill="#F2F2F2" d="M83 68.5l6.2 4.7v1.4L83 69.8zm0 2.1l6.2 4.8v1.3L83 72z"/><path fill="#1A1A1A" d="M81.4 74.9h16.3v2.7H81.4z"/><path fill="#A0D6ED" d="M90 56.3h6.2v8.5H90z"/><path fill="#4E4E4E" d="M89.2 55.5v10.1H97V55.5h-7.8zm.8.8h6.2v8.5H90v-8.5z"/><path opacity=".3" fill="#F2F2F2" d="M90 56.6l6.2 4.7v1.4L90 57.9zm0 2.1l6.2 4.8v1.3L90 60.1z"/><path fill="#A0D6ED" d="M81.3 56.3h6.2v8.5h-6.2z"/><path fill="#4E4E4E" d="M80.5 55.5v10.1h7.8V55.5h-7.8zm.8.8h6.2v8.5h-6.2v-8.5z"/><path opacity=".3" fill="#F2F2F2" d="M81.3 56.6l6.2 4.7v1.4l-6.2-4.8zm0 2.1l6.2 4.8v1.3l-6.2-4.7z"/><path fill="#A0D6ED" d="M72.7 56.3h6.2v8.5h-6.2z"/><path fill="#4E4E4E" d="M71.9 55.5v10.1h7.8V55.5h-7.8zm.8.8h6.2v8.5h-6.2v-8.5z"/><path opacity=".3" fill="#F2F2F2" d="M72.7 56.6l6.2 4.7v1.4l-6.2-4.8zm0 2.1l6.2 4.8v1.3l-6.2-4.7z"/><path fill="#A0D6ED" d="M64.1 56.3h6.2v8.5h-6.2z"/><path fill="#4E4E4E" d="M63.2 55.5v10.1H71V55.5h-7.8zm.9.8h6.2v8.5h-6.2v-8.5z"/><path opacity=".3" fill="#F2F2F2" d="M64.1 56.6l6.2 4.7v1.4l-6.2-4.8zm0 2.1l6.2 4.8v1.3l-6.2-4.7z"/><path fill="#A0D6ED" d="M90 44h6.2v8.5H90z"/><path fill="#4E4E4E" d="M89.2 43.2v10.1H97V43.2h-7.8zm.8.8h6.2v8.5H90V44z"/><path opacity=".3" fill="#F2F2F2" d="M90 44.3l6.2 4.7v1.4L90 45.6zm0 2.1l6.2 4.8v1.3L90 47.8z"/><path fill="#A0D6ED" d="M81.3 44h6.2v8.5h-6.2z"/><path fill="#4E4E4E" d="M80.5 43.2v10.1h7.8V43.2h-7.8zm.8.8h6.2v8.5h-6.2V44z"/><path opacity=".3" fill="#F2F2F2" d="M81.3 44.3l6.2 4.7v1.4l-6.2-4.8zm0 2.1l6.2 4.8v1.3l-6.2-4.7z"/><path fill="#A0D6ED" d="M72.7 44h6.2v8.5h-6.2z"/><path fill="#4E4E4E" d="M71.9 43.2v10.1h7.8V43.2h-7.8zm.8.8h6.2v8.5h-6.2V44z"/><path opacity=".3" fill="#F2F2F2" d="M72.7 44.3l6.2 4.7v1.4l-6.2-4.8zm0 2.1l6.2 4.8v1.3l-6.2-4.7z"/><path fill="#A0D6ED" d="M64.1 44h6.2v8.5h-6.2z"/><path fill="#4E4E4E" d="M63.2 43.2v10.1H71V43.2h-7.8zm.9.8h6.2v8.5h-6.2V44z"/><path opacity=".3" fill="#F2F2F2" d="M64.1 44.3l6.2 4.7v1.4l-6.2-4.8zm0 2.1l6.2 4.8v1.3l-6.2-4.7z"/><path fill="#A0D6ED" d="M90 31.7h6.2v8.5H90z"/><path fill="#4E4E4E" d="M89.2 30.9V41H97V30.9h-7.8zm.8.8h6.2v8.5H90v-8.5z"/><path opacity=".3" fill="#F2F2F2" d="M90 31.9l6.2 4.8v1.4L90 33.3zm0 2.2l6.2 4.7v1.4L90 35.5z"/><path fill="#A0D6ED" d="M81.3 31.7h6.2v8.5h-6.2z"/><path fill="#4E4E4E" d="M80.5 30.9V41h7.8V30.9h-7.8zm.8.8h6.2v8.5h-6.2v-8.5z"/><path opacity=".3" fill="#F2F2F2" d="M81.3 31.9l6.2 4.8v1.4l-6.2-4.8zm0 2.2l6.2 4.7v1.4l-6.2-4.7z"/><path fill="#A0D6ED" d="M72.7 31.7h6.2v8.5h-6.2z"/><path fill="#4E4E4E" d="M71.9 30.9V41h7.8V30.9h-7.8zm.8.8h6.2v8.5h-6.2v-8.5z"/><path opacity=".3" fill="#F2F2F2" d="M72.7 31.9l6.2 4.8v1.4l-6.2-4.8zm0 2.2l6.2 4.7v1.4l-6.2-4.7z"/><path fill="#A0D6ED" d="M64.1 31.7h6.2v8.5h-6.2z"/><path fill="#4E4E4E" d="M63.2 30.9V41H71V30.9h-7.8zm.9.8h6.2v8.5h-6.2v-8.5z"/><path opacity=".3" fill="#F2F2F2" d="M64.1 31.9l6.2 4.8v1.4l-6.2-4.8zm0 2.2l6.2 4.7v1.4l-6.2-4.7z"/><path fill="#612825" d="M111 94.2c-.4.1-.7.2-1.1.2-.5 1.7-1.3 3.9-3 4.4.2-1.2.7-1.7.9-3h-1.5c-.1.8-.1 1.6-.2 2.5 0 .1 0 .2-.1.3-.2.1-.4-.1-.5-.3-.3-.8-.6-1.7-.9-2.5l-1.7.1c.9 1.1 1.3 2.4 1.5 3.8.2 1.4.1 2.8 0 4.1.5 0 1 0 1.6-.1.1 0 .3 0 .3-.1.1-.1.1-.2.1-.3 0-.9.1-2.1.3-3.2 1.2-.5 2.3-1.2 3.1-2.2 1-.9 1.5-2.3 1.2-3.7z"/><path fill="#537133" d="M115.2 80.4c-.3-8.9-6.5-14.9-10-14.9h-.2c-3.6 0-9.8 6-10 14.9-.1 2.5-.9 8.2-.4 10.2 1 4.7 7.6 6.1 10.4 6.3h.4c2.8-.1 9.4-1.5 10.4-6.3.3-2-.6-7.7-.6-10.2z"/><path fill="#659740" d="M115.3 80.2c-.3-8.8-6.5-14.8-10.1-14.8h-.2c-3.6 0-9.9 6-10.1 14.8-.1 1.9-.3 3.7-.5 5.6-.1 1.8-.7 3.7 1 5.3.5.5 1.2 1.1 2.3 1.1 1.4 0 2.2-.8 2.4-1.4.1-.2.4-.4.6-.3.1 0 .1.1.1.1.3.4.7.9 1 1.3.3.3.6.7 1.2.9 1.1.3 2.3-.2 3-.7.8-.5 1.3-1.2 1.6-1.8.3.5.7.9 1.1 1.4.6.6 1.5 1.2 2.8 1.1.8 0 1.5-.3 1.8-.7.4-.3 1.9-.8 2-1.2.5-1.4.6-4.1.5-5.2-.2-1.8-.4-3.6-.5-5.5z"/><path fill="#82A547" d="M115.3 79.8c-.3-8.6-6.5-14.5-10-14.5h-.2c-3.6 0-9.8 5.8-10 14.5-.1 1.8-1.5 4.3 1.1 5.8.7.4 1.6.7 2.7.7 1.2 0 2.4-.3 3.2-.8.8-.5 1.2-1 1.6-1.6.4.8.9 1.5 1.7 2.2.8.7 2.1 1.3 3.7 1.5.6.1 1.3.1 1.9 0 .9-.2 1.4-.7 1.7-1.1.5-.8.6-1.6.4-2.4.1.4.3.8.7 1.2.1.1.3.2.5.3 2.5.8 1.5-2 1.5-2.3-.3-1.1-.5-2.3-.5-3.5z"/><path fill="#8ABC3F" d="M99.1 80.3c.4-.5.6-1.1 1-1.6s1.1-.9 1.6-.5c.2.2.3.4.4.7.5 1.2.7 2.7 1.8 3.5 1.1.7 2.8.3 3.4-.9.4-.7.4-1.6.6-2.3.2-.8.9-1.6 1.7-1.5 1.4.2 1.2 2.6 2.4 3.4.9.6 2.1-.1 3-.9.1-.1.3-.2.4-.4 0-.4-.1-.8-.1-1.2-.3-8.9-6.5-14.9-10-14.9h-.2c-3.6 0-9.8 6-10 14.9v.1c.1.2.2.5.3.7.6 1.3 2.6 2 3.7.9z"/></g><path fill="none" d="M114.8 131.2H16.4c-9.1 0-16.4-7.3-16.4-16.4V16.4C0 7.3 7.3 0 16.4 0h98.4c9.1 0 16.4 7.3 16.4 16.4v98.4c0 9.1-7.3 16.4-16.4 16.4z"/></svg>