<svg xmlns="http://www.w3.org/2000/svg" viewBox="0 0 19.3 19.3"><path fill="#3DB771" d="M19.3 9.6c0 5.3-4.4 9.7-9.9 9.6C4.3 19.2 0 15 0 9.5 0 4.3 4.3 0 9.7 0c5.2 0 9.6 4.3 9.6 9.6z"/><path fill="#FEFEFE" d="M16.5 6.8c0 .1-.1.1 0 0-.4.5-.8.9-1.2 1.4-.3.4-.6.7-.9 1.1-.4.5-.8.9-1.2 1.4-.4.5-.9 1-1.3 1.6-.4.5-.9 1-1.3 1.6-.6.7-1.1 1.3-1.7 2-.1.2-.3.3-.4.5 0 .1-.1.1-.1 0L3 11c-.1-.1-.1-.1 0-.1.4-.4.8-.9 1.2-1.3.3-.6.7-1.1 1.2-1.6.1-.2.1-.2.3 0 .8.9 1.6 1.7 2.4 2.6l.2.2.2-.2c.8-1.1 1.7-2.2 2.5-3.3.7-.9 1.4-1.9 2.2-2.8.1-.1.2-.2.3-.4 0-.1.1 0 .1 0 .4.4.8.7 1.2 1.1.6.5 1.1 1 1.7 1.5-.1.1-.1.1 0 .1z"/></svg>