<svg xmlns="http://www.w3.org/2000/svg" xmlns:xlink="http://www.w3.org/1999/xlink" viewBox="0 0 291.1 154.1"><text transform="translate(19.935 80.254)"><tspan x="0" y="0" fill="#FFF" font-family="'CircularStd-Book'" font-size="12">Low Cost</tspan><tspan x="8.7" y="14.4" fill="#FFF" font-family="'CircularStd-Book'" font-size="12">$ 000</tspan></text><text transform="translate(211.926 76.754)"><tspan x="0" y="0" fill="#FFF" font-family="'CircularStd-Book'" font-size="12">High Cost</tspan><tspan x="9.7" y="14.4" fill="#FFF" font-family="'CircularStd-Book'" font-size="12">$ 000</tspan></text><text transform="translate(102.607 10.254)"><tspan x="0" y="0" fill="#FFF" font-family="'CircularStd-Book'" font-size="12">Average Cost</tspan><tspan x="18.6" y="14.4" fill="#FFF" font-family="'CircularStd-Book'" font-size="12">$ 000</tspan></text><defs><path id="a" d="M126 40.2L16 142.3h250L156 40.2c-8.4-7.9-21.5-7.9-30 0z"/></defs><clipPath id="b"><use xlink:href="#a" overflow="visible"/></clipPath><g clip-path="url(#b)"><path fill="#FFF" d="M100.3-27.9h5.8v170.2h-5.8zm8.4 0h5.8v170.2h-5.8zm8.4 0h5.8v170.2h-5.8zm8.5 0h5.8v170.2h-5.8zm8.4 0h5.8v170.2H134zm8.4 0h5.8v170.2h-5.8zm8.4 0h5.8v170.2h-5.8zm8.5 0h5.8v170.2h-5.8zm8.4 0h5.8v170.2h-5.8zm8.4 0h5.8v170.2h-5.8z"/><path d="M16.1-27.9h5.8v170.2h-5.8zm8.4 0h5.8v170.2h-5.8zm8.4 0h5.8v170.2h-5.8zm8.5 0h5.8v170.2h-5.8zm8.4 0h5.8v170.2h-5.8zm8.4 0H64v170.2h-5.8zm8.4 0h5.8v170.2h-5.8zm8.4 0h5.8v170.2H75zm8.5 0h5.8v170.2h-5.8zm8.4 0h5.8v170.2h-5.8z" fill="#94CEF0"/><path d="M184.5-27.9h5.8v170.2h-5.8zm8.4 0h5.8v170.2h-5.8zm8.5 0h5.8v170.2h-5.8zm8.4 0h5.8v170.2h-5.8zm8.4 0h5.8v170.2h-5.8zm8.4 0h5.8v170.2h-5.8zm8.5 0h5.8v170.2h-5.8zm8.4 0h5.8v170.2h-5.8zm8.4 0h5.8v170.2h-5.8zm8.4 0h5.8v170.2h-5.8z" fill="#222D61"/></g><path fill="none" stroke="#FFF" stroke-width="2.191" stroke-miterlimit="10" d="M291.1 153H1.1V16.1"/><circle fill="#222D61" cx="141.1" cy="34.3" r="6"/><circle fill="#3DB771" cx="141.1" cy="34.3" r="4.9"/><circle fill="#FFF" cx="141.1" cy="34.3" r="3"/></svg>