<svg xmlns="http://www.w3.org/2000/svg" viewBox="0 0 158 70"><circle fill="#FFF" cx="107.7" cy="27.4" r="12.8"/><path d="M55.7 33.4c.7 0 1.4-.1 2.1-.2.7-.1 1.3-.3 1.9-.6.5-.3 1-.7 1.3-1.2.3-.5.5-1.1.5-1.9 0-.6-.2-1.1-.5-1.6-.3-.4-.8-.8-1.3-1.2-.5-.4-1.1-.7-1.7-1-.6-.3-1.3-.6-1.9-1-.8-.5-1.6-1-2.3-1.6s-1.4-1.2-1.9-1.8-.9-1.4-1.2-2.3c-.3-.8-.5-1.8-.5-2.9 0-1.4.3-2.7.8-3.9.5-1.2 1.3-2.2 2.4-3.1 1-.9 2.4-1.6 3.9-2.1 1.6-.5 3.4-.8 5.6-.8 1 0 1.9.1 2.8.3.9.2 1.8.4 2.6.6.8.2 1.5.5 2.2.8.7.3 1.2.6 1.7.9l-3 5.3c-.8-.6-1.7-1.1-2.8-1.5-1.1-.4-2.3-.6-3.6-.6-.7 0-1.4.1-2 .2-.6.1-1.2.3-1.7.6s-.9.7-1.2 1.1c-.3.5-.4 1-.4 1.7 0 .6.1 1.1.3 1.5.2.4.5.8.9 1.1.4.3.8.6 1.3.8.5.2 1 .5 1.6.8.9.5 1.9 1 2.7 1.6.9.5 1.7 1.2 2.3 1.9.7.7 1.2 1.5 1.6 2.4.4.9.6 2 .6 3.2 0 1.7-.3 3.2-1 4.5-.6 1.3-1.5 2.3-2.7 3.2-1.2.9-2.5 1.5-4.1 1.9-1.6.4-3.4.6-5.3.6-1.3 0-2.5-.1-3.6-.3s-2.1-.5-3-.8c-.9-.3-1.7-.6-2.3-.9-.7-.3-1.2-.6-1.6-.9l3-5.4c.4.2.8.5 1.3.8.5.3 1.1.5 1.8.8.7.2 1.3.4 2.1.6.7.3 1.5.4 2.3.4zm30.4-19.2c1.3 0 2.4.2 3.4.6.9.4 1.7.9 2.3 1.6s1.1 1.5 1.4 2.4c.3.9.5 2 .5 3.1 0 1.3-.2 2.5-.5 3.8l-3.1 13h-6.8l3-12.7c.1-.5.2-1.1.3-1.6s.2-1.1.2-1.6c0-.8-.2-1.5-.6-2-.4-.6-1.2-.8-2.4-.8-.5 0-1 0-1.4.1-.4.1-.9.1-1.3.2l-4.4 18.5h-6.8l8.2-34.3 7.1-1.1-2.8 11.5 1.8-.3c.6-.3 1.3-.4 1.9-.4zm52.1 10.4c-.6 1.2-1.2 2.5-1.9 3.8-.7 1.3-1.4 2.6-2.2 3.8-.7 1.2-1.5 2.4-2.2 3.5-.7 1.1-1.3 2.1-1.9 2.9h-5.3c-.2-1.3-.5-2.8-.8-4.6-.3-1.8-.5-3.7-.8-5.8-.2-2.1-.5-4.3-.7-6.6-.2-2.3-.3-4.7-.4-7.1h6.7v3.6c0 1.3 0 2.6.1 4 0 1.4.1 2.8.2 4.2.1 1.4.2 2.8.4 4.2.8-1.3 1.5-2.6 2.3-4 .7-1.4 1.5-2.8 2.1-4.2.7-1.4 1.3-2.7 1.9-4.1.6-1.3 1.1-2.6 1.6-3.7h5.7c0 2.2 0 4.6.1 7.4.1 2.7.3 5.6.6 8.6.8-1.4 1.6-2.8 2.3-4.2.7-1.4 1.3-2.9 1.9-4.3.6-1.4 1.1-2.7 1.6-4 .5-1.3.9-2.4 1.3-3.5h7.2c-.6 1.5-1.3 3.2-2.2 5.1-.8 1.9-1.8 3.9-2.9 6s-2.3 4.2-3.7 6.4c-1.4 2.2-2.9 4.3-4.6 6.4h-5.3c-.4-2.5-.6-4.9-.8-7.2s-.2-4.3-.3-6.6z" fill="#FFF"/><path fill="#FED700" d="M112.1 29.8s28.8 18.8 1.6 22.7S22.5 33 22.5 33l1.6-3.2-10.3.8 5.7 8.5 1.4-2.8s73.6 23.3 96.4 16.9c23-6.4-5.2-23.4-5.2-23.4z"/><g fill="#FFF"><path d="M14.2 43c.4-.1.9-.3 1.4-.4s1-.3 1.6-.4 1.3-.2 2.1-.3 1.6-.1 2.6-.1c1.2 0 2.2.1 3 .4s1.5.7 2.1 1.3c.9-.5 1.8-1 2.7-1.3.9-.3 2-.5 3.2-.5 1.2 0 2.2.2 3 .5.8.3 1.5.8 2.1 1.3.5.6.9 1.3 1.2 2.1.2.8.4 1.7.4 2.7 0 .4 0 .9-.1 1.4l-.3 1.5-2.5 10.6h-5.6l2.5-10.4c.1-.3.2-.7.2-1.2.1-.4.1-.9.1-1.3 0-.7-.2-1.3-.5-1.8s-1-.8-1.9-.8c-.5 0-1 .1-1.5.3-.5.2-.9.4-1.3.6 0 .2.1.4.1.6v.5c0 .4 0 .9-.1 1.4l-.3 1.5L26 61.7h-5.6l2.5-10.4c.1-.3.2-.7.2-1.2.1-.4.1-.9.1-1.3 0-.7-.2-1.3-.5-1.8s-1-.8-1.9-.8c-.4 0-.7 0-1 .1-.3 0-.6.1-1 .2l-3.6 15.2H9.7L14.2 43zm45.8-.9c-.7 1.9-1.4 3.7-2.1 5.3s-1.5 3.2-2.2 4.7c-.8 1.5-1.6 2.9-2.4 4.2-.8 1.3-1.7 2.7-2.6 4l-2.1 3c-.7 1-1.5 1.9-2.4 2.7-.9.8-1.9 1.4-3 1.9s-2.3.7-3.8.7c-.9 0-1.6-.1-2.2-.2-.6-.2-1.2-.4-1.8-.7l1.7-4.4c.5.2.9.4 1.3.5s1 .2 1.6.2c.9 0 1.7-.3 2.5-.8.8-.6 1.4-1.3 2-2.3-.6-2.5-1.2-5.3-1.8-8.4-.5-3.1-.9-6.6-1.1-10.5h5.7c0 1 .1 2 .1 3.2.1 1.2.2 2.3.3 3.5.1 1.2.2 2.3.3 3.5.1 1.1.3 2.1.4 3 1.2-1.8 2.2-3.8 3.2-6 .9-2.2 1.8-4.6 2.6-7.2H60zm24.2 7.7c0 1.8-.3 3.5-.9 5s-1.4 2.8-2.5 3.9-2.3 1.9-3.8 2.6c-1.5.6-3.1.9-4.8.9-.8 0-1.7-.1-2.5-.2L68 68.7h-5.5l6.2-25.9c1-.3 2.1-.6 3.4-.8 1.3-.2 2.7-.4 4.2-.4 1.4 0 2.6.2 3.6.6 1 .4 1.8 1 2.5 1.7s1.1 1.6 1.4 2.6c.3 1.1.4 2.1.4 3.3zm-13.5 7.6c.4.1.9.1 1.6.1 1 0 1.9-.2 2.7-.5.8-.4 1.5-.9 2-1.5s1-1.4 1.3-2.3c.3-.9.5-1.9.5-3s-.2-2-.7-2.7c-.5-.7-1.3-1.1-2.5-1.1-.8 0-1.5.1-2.2.2l-2.7 10.8zm28.2-10.5c-.5-.1-1-.2-1.5-.4-.5-.1-1.2-.2-2.1-.2-.3 0-.7 0-1.2.1-.4.1-.8.1-1 .2l-3.6 15.1h-5.6l4.5-18.6c1.1-.3 2.3-.7 3.6-1 1.3-.3 2.8-.5 4.5-.5.6 0 1.3.1 2.1.2s1.4.3 2 .5l-1.7 4.6zm4 14.8h-5.5l4.7-19.6h5.6l-4.8 19.6zm2.7-22c-.8 0-1.5-.2-2.1-.7-.6-.5-.9-1.2-.9-2.1 0-.5.1-1 .3-1.5.2-.5.5-.9.8-1.2.3-.3.8-.6 1.2-.8.5-.2 1-.3 1.5-.3.8 0 1.5.2 2.1.7.6.5.9 1.2.9 2.1 0 .5-.1 1-.3 1.5-.2.5-.5.9-.8 1.2s-.8.6-1.2.8c-.5.2-1 .3-1.5.3zm1.6 14.2c0-1.7.3-3.3.8-4.8s1.3-2.8 2.4-3.9c1-1.1 2.3-2 3.7-2.7 1.5-.6 3.1-1 4.9-1 1.1 0 2.1.1 3 .3.9.2 1.7.5 2.4.8l-1.9 4.3c-.5-.2-1-.4-1.5-.5-.5-.2-1.2-.2-2-.2-1.9 0-3.3.6-4.4 1.9-1.1 1.3-1.6 3-1.6 5.1 0 1.3.3 2.3.8 3.1s1.6 1.2 3 1.2c.7 0 1.4-.1 2.1-.2.7-.1 1.3-.3 1.8-.6l.4 4.4c-.7.3-1.5.5-2.3.7-.8.2-1.8.3-3 .3-1.5 0-2.9-.2-3.9-.7s-2-1.1-2.7-1.8-1.2-1.6-1.5-2.7-.5-1.9-.5-3z"/><path d="M122.3 54c0-1.6.3-3.1.8-4.6s1.4-2.8 2.4-4c1-1.2 2.3-2.1 3.7-2.8 1.5-.7 3.1-1.1 4.8-1.1.9 0 1.7.1 2.4.4s1.4.6 2 1.1c.6.5 1 1.1 1.3 1.7.3.7.5 1.5.5 2.3 0 1.4-.3 2.6-.9 3.5-.6 1-1.5 1.8-2.6 2.4-1.1.6-2.4 1.1-3.9 1.3-1.5.3-3.2.4-5 .4.2 1 .6 1.8 1.1 2.2.6.4 1.5.7 2.8.7.8 0 1.6-.1 2.4-.2.8-.1 1.6-.3 2.3-.6l.4 4.4c-.7.3-1.6.5-2.7.7-1.1.2-2.3.3-3.5.3-1.5 0-2.8-.2-3.9-.7s-1.9-1-2.6-1.8c-.7-.7-1.1-1.6-1.4-2.6s-.4-1.8-.4-3zm10.9-8c-1.3 0-2.4.5-3.3 1.4-1 .9-1.6 2.1-1.9 3.6 1.5 0 2.8-.2 3.7-.4s1.7-.5 2.2-.8c.5-.3.9-.6 1-1 .2-.3.3-.7.3-1 0-1.2-.7-1.8-2-1.8zm12.3 11.8c1.3 0 2.1-.2 2.6-.5s.7-.8.7-1.2c0-.3 0-.5-.1-.7-.1-.2-.2-.4-.4-.6-.2-.2-.5-.4-.8-.5-.3-.2-.8-.4-1.3-.7l-1.8-.9c-.5-.3-1-.7-1.4-1.1s-.7-.9-1-1.5c-.2-.6-.4-1.2-.4-2 0-2 .7-3.6 2.2-4.8 1.5-1.2 3.6-1.8 6.5-1.8 1.3 0 2.5.1 3.6.4s1.9.6 2.5 1l-1.9 4.1c-.5-.3-1.2-.5-2-.8-.8-.2-1.6-.4-2.4-.4-.3 0-.7 0-1 .1-.3 0-.6.1-.9.2-.3.1-.5.3-.7.5-.2.2-.3.5-.3.9 0 .5.2.9.6 1.1.4.2.9.5 1.6.9 1 .5 1.8.9 2.4 1.3.6.4 1.2.8 1.5 1.3s.7 1 .8 1.5c.2.6.3 1.2.3 2s-.2 1.6-.5 2.4c-.3.8-.9 1.5-1.6 2.1-.7.6-1.6 1.1-2.8 1.5-1.1.4-2.5.6-4 .6-1 0-1.8-.1-2.6-.2s-1.5-.3-2.1-.5-1.1-.4-1.5-.6c-.4-.2-.7-.4-1-.5l1.9-4.3c.4.2 1.1.6 2 .9.9.6 2 .8 3.3.8z"/></g><path fill="#FED700" d="M24.2 29.7l-1.6 3.2s25.7 9.4 51.7 15.5v1.9c-26.5-5.5-53.3-14-53.3-14l-1.4 2.8-5.8-8.7 10.4-.7z"/><circle fill="#FED700" cx="107.7" cy="27.4" r="8"/><path fill="#448BCA" d="M107.7 20.6c3.7 0 6.8 3 6.8 6.8 0 3.7-3 6.8-6.8 6.8-3.7 0-6.8-3-6.8-6.8s3.1-6.8 6.8-6.8zm5.8 6.8c0-3.2-2.6-5.8-5.8-5.8-3.2 0-5.8 2.6-5.8 5.8 0 3.2 2.6 5.8 5.8 5.8 3.2 0 5.8-2.6 5.8-5.8z"/><path fill="#448BCA" d="M107.3 22.5h.8c.1 0 .1 0 .1.1v.6c0 .2 0 .2.2.2.3.1.7.2.9.4.4.3.7.7.8 1.2v.1c-.1 0-.2.1-.3.1-.3.1-.6.2-.9.4-.1 0-.1 0-.2-.1-.1-.3-.3-.6-.6-.8-.4-.3-1.3-.2-1.4.5-.1.3.1.6.4.7.3.2.6.3 1 .4.4.2.9.3 1.3.6.6.4.8.9.9 1.6 0 .6-.1 1.1-.4 1.5-.3.5-.8.8-1.4.9-.1 0-.2.1-.4.1-.1 0-.1.1-.1.1v.9h-.9v-1c0-.1 0-.1-.1-.1-.2-.1-.5-.1-.7-.2-.5-.2-.9-.6-1.2-1.1-.1-.2-.2-.5-.2-.7v-.1c.4-.1.9-.2 1.3-.4 0 .1.1.2.1.4.2.6.7.8 1.3.8.2 0 .5-.1.6-.2.4-.3.4-1.1-.1-1.3-.4-.2-.9-.4-1.3-.5-.4-.1-.7-.3-1-.6-.5-.4-.7-1-.7-1.6 0-.7.2-1.2.7-1.7.3-.3.7-.4 1.1-.5.2 0 .2 0 .2-.2.2 0 .2-.2.2-.5 0 .1 0 0 0 0z"/></svg>