<svg xmlns="http://www.w3.org/2000/svg" viewBox="0 0 40 40"><path fill="#94CEF0" d="M20 0C9 0 0 9 0 20.1 0 31 9 40 20 40s20-9 20-20S31 0 20 0zM9.3 12.9c0-1.7.5-2.9 1.4-3.9L12 7.7c.9-.9 2-.9 2.9 0l2.8 2.8c.7.7.8 1.5.3 2.4-.3.6-.7 1.2-1 1.7-.4.7-.3 1.2.2 1.8l6.4 6.4c.5.5 1 .6 1.7.2.6-.3 1.2-.7 1.9-1 .7-.4 1.5-.4 2.1.2 1.1 1 2.2 2.1 3.2 3.2.7.7.6 1.8-.1 2.5-.4.5-.9.9-1.3 1.3-1.8 1.7-4.1 2-6.3.8-6.3-3.7-11.3-8.7-14.9-15-.4-.8-.6-1.6-.6-2.1z"/><path fill="#FFF" d="M9.3 12.9c0 .5.2 1.3.7 2.1 3.6 6.3 8.5 11.4 14.9 15 2.1 1.2 4.5.9 6.3-.8.5-.4.9-.9 1.3-1.3.7-.7.8-1.8.1-2.5-1-1.1-2.1-2.2-3.2-3.2-.6-.6-1.4-.6-2.1-.2-.6.3-1.2.7-1.9 1-.7.4-1.2.3-1.7-.2l-6.4-6.4c-.6-.6-.6-1.1-.2-1.8.3-.6.7-1.2 1-1.7.5-.8.4-1.7-.3-2.4L15 7.7c-.9-.9-2-.9-2.9 0L10.8 9c-1.1 1-1.5 2.2-1.5 3.9z"/></svg>