<svg xmlns="http://www.w3.org/2000/svg" xmlns:xlink="http://www.w3.org/1999/xlink" viewBox="0 0 131.2 131.2"><path fill="#FFF" d="M114.8 131.2H16.4c-9.1 0-16.4-7.3-16.4-16.4V16.4C0 7.3 7.3 0 16.4 0h98.4c9.1 0 16.4 7.3 16.4 16.4v98.4c0 9.1-7.3 16.4-16.4 16.4z"/><defs><path id="a" d="M114.8 131.2H16.4c-9.1 0-16.4-7.3-16.4-16.4V16.4C0 7.3 7.3 0 16.4 0h98.4c9.1 0 16.4 7.3 16.4 16.4v98.4c0 9.1-7.3 16.4-16.4 16.4z"/></defs><clipPath id="b"><use xlink:href="#a" overflow="visible"/></clipPath><path clip-path="url(#b)" fill="#D2DE8C" d="M118.8 97.5C11.3 93-54 105.3-120.4 128.8c0 0-19.5 5 21.3 5h315.8s-35.7-28.2-97.9-36.3z"/><path clip-path="url(#b)" fill="#BACD79" d="M120.2 106.6c-42-3.2-138.2 15.5-146.5 31l239.7-6.3s-44-21.3-90.8-24.6c-.8 0-1.6-.1-2.4-.1z"/><path fill="none" d="M114.8 131.2H16.4c-9.1 0-16.4-7.3-16.4-16.4V16.4C0 7.3 7.3 0 16.4 0h98.4c9.1 0 16.4 7.3 16.4 16.4v98.4c0 9.1-7.3 16.4-16.4 16.4z"/><path d="M102.1 42.8l3 57.9h-6z"/><g fill="#BCBCBC"><circle cx="105.5" cy="65.8" r="3.9"/><circle cx="93.7" cy="63.7" r="5.5"/><circle cx="98.9" cy="67.9" r="6"/><circle cx="104.6" cy="55.9" r="7"/><circle cx="87.8" cy="59.6" r="5"/><circle cx="104.6" cy="80.8" r="5"/><circle cx="102.1" cy="84.5" r="2.8"/><circle cx="108.7" cy="85.3" r="2.8"/><circle cx="109.6" cy="79.8" r="2.8"/><circle cx="99.3" cy="79.8" r="2.8"/><circle cx="92.7" cy="58.8" r="4.9"/><circle cx="93.6" cy="53.4" r="6.6"/><circle cx="96.2" cy="47.2" r="4.4"/><circle cx="94.8" cy="46.1" r="5.6"/><circle cx="95.7" cy="39.3" r="3"/><circle cx="101.3" cy="46.5" r="5.2"/><circle cx="101.6" cy="39.3" r="4.9"/><circle cx="99.6" cy="50.5" r="5.4"/><circle cx="99.6" cy="59" r="6.8"/></g><path fill="#BCBCBC" d="M93.6 100.9V84.1l1.6-2.1 1.6 2.1v16.8zm6.4 0V84.1l1.6-2.1 1.5 2.1v16.8zm6.3 0V84.1l1.6-2.1 1.6 2.1v16.8z"/><path fill="#BCBCBC" d="M89.5 87.3h24.1v3.2H89.5z"/><path fill="#7C7C7C" d="M89.5 90.5h24.1v.5H89.5z"/><path fill="#BCBCBC" d="M89.5 94.7h24.1v3.2H89.5z"/><path fill="#7C7C7C" d="M89.5 97.8h24.1v.5H89.5z"/><path d="M21.7 100.9V84.1l1.6-2.1 1.6 2.1v16.8zm6.4 0V84.1l1.6-2.1 1.6 2.1v16.8zm6.3 0V84.1L36 82l1.6 2.1v16.8z" fill="#BCBCBC"/><path fill="#BCBCBC" d="M17.6 87.3h24.1v3.2H17.6z"/><path fill="#7C7C7C" d="M17.6 90.5h24.1v.5H17.6z"/><path fill="#BCBCBC" d="M17.6 94.7h24.1v3.2H17.6z"/><path fill="#7C7C7C" d="M17.6 97.8h24.1v.5H17.6z"/><defs><path id="c" d="M92.4 62.8L65.6 36.6 38.8 62.8v35.6h53.6z"/></defs><clipPath id="d"><use xlink:href="#c" overflow="visible"/></clipPath><path clip-path="url(#d)" fill="#D3D3D3" d="M38.8 96h53.7v2.4H38.8z"/><path clip-path="url(#d)" fill="#B2B2B2" d="M38.8 95.4h53.7v.6H38.8z"/><path clip-path="url(#d)" fill="#D3D3D3" d="M38.8 93.1h53.7v2.4H38.8z"/><path clip-path="url(#d)" fill="#B2B2B2" d="M38.8 92.4h53.7v.6H38.8z"/><path clip-path="url(#d)" fill="#D3D3D3" d="M38.8 90.1h53.7v2.4H38.8z"/><path clip-path="url(#d)" fill="#B2B2B2" d="M38.8 89.4h53.7v.6H38.8z"/><path clip-path="url(#d)" fill="#D3D3D3" d="M38.8 87.1h53.7v2.4H38.8z"/><path clip-path="url(#d)" fill="#B2B2B2" d="M38.8 86.5h53.7v.6H38.8z"/><path clip-path="url(#d)" fill="#D3D3D3" d="M38.8 84.1h53.7v2.4H38.8z"/><path clip-path="url(#d)" fill="#B2B2B2" d="M38.8 83.5h53.7v.6H38.8z"/><path clip-path="url(#d)" fill="#D3D3D3" d="M38.8 81.1h53.7v2.4H38.8z"/><path clip-path="url(#d)" fill="#B2B2B2" d="M38.8 80.5h53.7v.6H38.8z"/><path clip-path="url(#d)" fill="#D3D3D3" d="M38.8 78.1h53.7v2.4H38.8z"/><path clip-path="url(#d)" fill="#B2B2B2" d="M38.8 77.5h53.7v.6H38.8z"/><path clip-path="url(#d)" fill="#D3D3D3" d="M38.8 75.1h53.7v2.4H38.8z"/><path clip-path="url(#d)" fill="#B2B2B2" d="M38.8 74.5h53.7v.6H38.8z"/><path clip-path="url(#d)" fill="#D3D3D3" d="M38.8 72.1h53.7v2.4H38.8z"/><path clip-path="url(#d)" fill="#B2B2B2" d="M38.8 71.5h53.7v.6H38.8z"/><path clip-path="url(#d)" fill="#D3D3D3" d="M38.8 69.1h53.7v2.4H38.8z"/><path clip-path="url(#d)" fill="#B2B2B2" d="M38.8 68.5h53.7v.6H38.8z"/><path clip-path="url(#d)" fill="#D3D3D3" d="M38.8 66.2h53.7v2.4H38.8z"/><path clip-path="url(#d)" fill="#B2B2B2" d="M38.8 65.5h53.7v.6H38.8z"/><path clip-path="url(#d)" fill="#D3D3D3" d="M38.8 63.2h53.7v2.4H38.8z"/><path clip-path="url(#d)" fill="#B2B2B2" d="M38.8 62.5h53.7v.6H38.8z"/><path clip-path="url(#d)" fill="#D3D3D3" d="M38.8 60.2h53.7v2.4H38.8z"/><path clip-path="url(#d)" fill="#B2B2B2" d="M38.8 59.6h53.7v.6H38.8z"/><path clip-path="url(#d)" fill="#D3D3D3" d="M38.8 57.2h53.7v2.4H38.8z"/><path clip-path="url(#d)" fill="#B2B2B2" d="M38.8 56.6h53.7v.6H38.8z"/><path clip-path="url(#d)" fill="#D3D3D3" d="M38.8 54.2h53.7v2.4H38.8z"/><path clip-path="url(#d)" fill="#B2B2B2" d="M38.8 53.6h53.7v.6H38.8z"/><path clip-path="url(#d)" fill="#D3D3D3" d="M38.8 51.2h53.7v2.4H38.8z"/><path clip-path="url(#d)" fill="#B2B2B2" d="M38.8 50.6h53.7v.6H38.8z"/><path clip-path="url(#d)" fill="#D3D3D3" d="M38.8 48.2h53.7v2.4H38.8z"/><path clip-path="url(#d)" fill="#B2B2B2" d="M38.8 47.6h53.7v.6H38.8z"/><path clip-path="url(#d)" fill="#D3D3D3" d="M38.8 45.2h53.7v2.4H38.8z"/><path clip-path="url(#d)" fill="#B2B2B2" d="M38.8 44.6h53.7v.6H38.8z"/><path clip-path="url(#d)" fill="#D3D3D3" d="M38.8 42.2h53.7v2.4H38.8z"/><path clip-path="url(#d)" fill="#B2B2B2" d="M38.8 41.6h53.7v.6H38.8z"/><path clip-path="url(#d)" fill="#D3D3D3" d="M38.8 39.3h53.7v2.4H38.8z"/><path clip-path="url(#d)" fill="#B2B2B2" d="M38.8 38.6h53.7v.6H38.8z"/><path clip-path="url(#d)" fill="#D3D3D3" d="M38.8 36.3h53.7v2.4H38.8z"/><path clip-path="url(#d)" fill="#B2B2B2" d="M38.8 35.6h53.7v.6H38.8z"/><path d="M45.8 40.9h5.5v9.6h-5.5z"/><path opacity=".5" fill="#BBB" d="M92.4 65.8v-3L65.6 36.6 38.8 62.8v3l26.8-26.3z"/><path fill="#0A0A0A" d="M93.8 100.9v-1.4c0-.6-.6-1.2-1.3-1.2H38.7c-.7 0-1.3.5-1.3 1.2v1.4h56.4z"/><path d="M37.5 100.4h56.3v.5H37.5z"/><path fill="#333" d="M60 70h11.2v28.4H60z"/><path fill="#0A0A0A" d="M59.4 69.3V99h1.3V70.6h9.9V99h1.3V69.3z"/><path d="M58.5 98.4h14.3v2.5H58.5z"/><path fill="#333" d="M69.4 81.8c-1.3.1-2.5.1-3.8.2-1.3.1-2.5.1-3.8.1h-.3v-.4c-.1-3.2-.1-6.3-.1-9.5v-.5h.5c2.5 0 5 0 7.5.1h.4v.4l-.1 4.8c0 .8-.1 1.6-.1 2.4-.1.8-.1 1.6-.2 2.4zm0 0c-.1-.8-.1-1.6-.1-2.4 0-.8-.1-1.6-.1-2.4l-.2-4.7.4.4c-2.5.1-5 .1-7.5.1l.5-.5c0 3.2 0 6.3-.1 9.5l-.3-.3c1.3 0 2.5.1 3.8.1 1.1 0 2.4.1 3.6.2zm0 14.2c-1.3.1-2.5.1-3.8.2-1.3.1-2.5.1-3.8.1h-.3v-.4c-.1-3.2-.1-6.3-.1-9.5v-.5h.5c2.5 0 5 0 7.5.1h.4v.4l-.1 4.7c0 .8-.1 1.6-.1 2.4-.1 1-.1 1.8-.2 2.5zm0 0c-.1-.8-.1-1.6-.1-2.4 0-.8-.1-1.6-.1-2.4l-.2-4.6.4.4c-2.5.1-5 .1-7.5.1l.5-.5c0 3.2 0 6.3-.1 9.5l-.3-.3c1.3 0 2.5.1 3.8.1 1.1 0 2.4 0 3.6.1z"/><circle cx="69.1" cy="84.6" r=".6"/><path fill="#333" d="M65.6 30.3l-33 33h6.2l26.8-26.1 26.9 26.1h6.1zM52.7 40.7c0 .7-.6 1.3-1.3 1.3h-5.8c-.7 0-1.3-.6-1.3-1.3v-2.1c0-.7.6-1.3 1.3-1.3h5.8c.7 0 1.3.6 1.3 1.3v2.1z"/><circle fill="#E0E0E0" cx="65.6" cy="56.9" r="7.6"/><path fill="#0A0A0A" d="M65 49.3h1.3v15.3H65z"/><path fill="#0A0A0A" d="M58 56.2h15.3v1.3H58z"/><path d="M57.4 56.9c0-4.6 3.7-8.3 8.3-8.3 4.6 0 8.3 3.7 8.3 8.3 0 4.6-3.7 8.3-8.3 8.3-4.6-.1-8.3-3.8-8.3-8.3zm1.2 0c0 3.9 3.1 7 7 7s7-3.1 7-7-3.1-7-7-7c-3.8 0-7 3.1-7 7z"/><path fill="#E0E0E0" d="M44.6 74.2h9.6v13.2h-9.6z"/><path fill="#0A0A0A" d="M43.3 72.9v15.7h12.1V72.9H43.3zm10.9 14.5h-9.6V74.2h9.6v13.2z"/><path opacity=".3" fill="#F7F7F7" d="M54.2 74.5l-9.6 7.4V84l9.6-7.3zm0 3.4l-9.6 7.3v2.2l9.6-7.4z"/><path d="M42.2 84.5h14.4v4.2H42.2z"/><path fill="#E0E0E0" d="M77.1 74.2h9.6v13.2h-9.6z"/><path fill="#0A0A0A" d="M75.8 72.9v15.7h12.1V72.9H75.8zm10.8 14.5H77V74.2h9.6v13.2z"/><path opacity=".3" fill="#F7F7F7" d="M86.6 74.5l-9.5 7.4V84l9.5-7.3zm0 3.4l-9.5 7.3v2.2l9.5-7.4z"/><path d="M74.6 84.5H89v4.2H74.6z"/><path fill="#6E6E6E" d="M72.7 98.4h4.7l1.3-2.4h-7.3z"/><path fill="#BCBCBC" d="M72.3 93.3v-.1c0-.6.5-1.2 1.2-1.3.2-.2.5-.4.8-.4.4 0 .8.2 1 .6.3-.4.8-.6 1.3-.6.9 0 1.7.7 1.7 1.5 0 .2 0 .4-.1.5.3.2.6.5.6.8 0 .2 0 .3-.1.4h-7c-.1-.2-.2-.3-.2-.6-.2-.3.2-.7.8-.8z"/><path fill="#9E9E9E" d="M70.9 94.8h8.3v1.4h-8.3z"/><path fill="#6E6E6E" d="M53.8 98.4h4.8l1.2-2.4h-7.2z"/><path fill="#BCBCBC" d="M53.5 93.3v-.1c0-.6.5-1.2 1.2-1.3.2-.2.5-.4.8-.4.4 0 .8.2 1 .6.3-.4.8-.6 1.3-.6.9 0 1.7.7 1.7 1.5 0 .2 0 .4-.1.5.3.2.6.5.6.8 0 .2 0 .3-.1.4h-7c-.1-.2-.2-.3-.2-.6-.2-.3.2-.7.8-.8z"/><path fill="#9E9E9E" d="M52 94.8h8.3v1.4H52z"/><path fill="#412312" d="M102.1 42.8l3 57.9h-6z"/><g fill="#8CC541"><circle cx="105.5" cy="65.8" r="3.9"/><circle cx="93.7" cy="63.7" r="5.5"/><circle cx="98.9" cy="67.9" r="6"/><circle cx="104.6" cy="55.9" r="7"/><circle cx="87.8" cy="59.6" r="5"/><circle cx="104.6" cy="80.8" r="5"/><circle cx="102.1" cy="84.5" r="2.8"/><circle cx="108.7" cy="85.3" r="2.8"/><circle cx="109.6" cy="79.8" r="2.8"/><circle cx="99.3" cy="79.8" r="2.8"/><circle cx="92.7" cy="58.8" r="4.9"/><circle cx="93.6" cy="53.4" r="6.6"/><circle cx="96.2" cy="47.2" r="4.4"/><circle cx="94.8" cy="46.1" r="5.6"/><circle cx="95.7" cy="39.3" r="3"/><circle cx="101.3" cy="46.5" r="5.2"/><circle cx="101.6" cy="39.3" r="4.9"/><circle cx="99.6" cy="50.5" r="5.4"/><circle cx="99.6" cy="59" r="6.8"/></g><path fill="#E5B683" d="M93.6 100.9V84.1l1.6-2.1 1.6 2.1v16.8zm6.4 0V84.1l1.6-2.1 1.5 2.1v16.8zm6.3 0V84.1l1.6-2.1 1.6 2.1v16.8z"/><path fill="#E5B683" d="M89.5 87.3h24.1v3.2H89.5z"/><path fill="#A88460" d="M89.5 90.5h24.1v.5H89.5z"/><path fill="#E5B683" d="M89.5 94.7h24.1v3.2H89.5z"/><path fill="#A88460" d="M89.5 97.8h24.1v.5H89.5z"/><path d="M21.7 100.9V84.1l1.6-2.1 1.6 2.1v16.8zm6.4 0V84.1l1.6-2.1 1.6 2.1v16.8zm6.3 0V84.1L36 82l1.6 2.1v16.8z" fill="#E5B683"/><path fill="#E5B683" d="M17.6 87.3h24.1v3.2H17.6z"/><path fill="#A88460" d="M17.6 90.5h24.1v.5H17.6z"/><path fill="#E5B683" d="M17.6 94.7h24.1v3.2H17.6z"/><path fill="#A88460" d="M17.6 97.8h24.1v.5H17.6z"/><defs><path id="e" d="M92.4 62.8L65.6 36.6 38.8 62.8v35.6h53.6z"/></defs><clipPath id="f"><use xlink:href="#e" overflow="visible"/></clipPath><path clip-path="url(#f)" fill="#F2D185" d="M38.8 96h53.7v2.4H38.8z"/><path clip-path="url(#f)" fill="#D2B163" d="M38.8 95.4h53.7v.6H38.8z"/><path clip-path="url(#f)" fill="#F2D185" d="M38.8 93.1h53.7v2.4H38.8z"/><path clip-path="url(#f)" fill="#D2B163" d="M38.8 92.4h53.7v.6H38.8z"/><path clip-path="url(#f)" fill="#F2D185" d="M38.8 90.1h53.7v2.4H38.8z"/><path clip-path="url(#f)" fill="#D2B163" d="M38.8 89.4h53.7v.6H38.8z"/><path clip-path="url(#f)" fill="#F2D185" d="M38.8 87.1h53.7v2.4H38.8z"/><path clip-path="url(#f)" fill="#D2B163" d="M38.8 86.5h53.7v.6H38.8z"/><path clip-path="url(#f)" fill="#F2D185" d="M38.8 84.1h53.7v2.4H38.8z"/><path clip-path="url(#f)" fill="#D2B163" d="M38.8 83.5h53.7v.6H38.8z"/><path clip-path="url(#f)" fill="#F2D185" d="M38.8 81.1h53.7v2.4H38.8z"/><path clip-path="url(#f)" fill="#D2B163" d="M38.8 80.5h53.7v.6H38.8z"/><path clip-path="url(#f)" fill="#F2D185" d="M38.8 78.1h53.7v2.4H38.8z"/><path clip-path="url(#f)" fill="#D2B163" d="M38.8 77.5h53.7v.6H38.8z"/><path clip-path="url(#f)" fill="#F2D185" d="M38.8 75.1h53.7v2.4H38.8z"/><path clip-path="url(#f)" fill="#D2B163" d="M38.8 74.5h53.7v.6H38.8z"/><path clip-path="url(#f)" fill="#F2D185" d="M38.8 72.1h53.7v2.4H38.8z"/><path clip-path="url(#f)" fill="#D2B163" d="M38.8 71.5h53.7v.6H38.8z"/><path clip-path="url(#f)" fill="#F2D185" d="M38.8 69.1h53.7v2.4H38.8z"/><path clip-path="url(#f)" fill="#D2B163" d="M38.8 68.5h53.7v.6H38.8z"/><path clip-path="url(#f)" fill="#F2D185" d="M38.8 66.2h53.7v2.4H38.8z"/><path clip-path="url(#f)" fill="#D2B163" d="M38.8 65.5h53.7v.6H38.8z"/><path clip-path="url(#f)" fill="#F2D185" d="M38.8 63.2h53.7v2.4H38.8z"/><path clip-path="url(#f)" fill="#D2B163" d="M38.8 62.5h53.7v.6H38.8z"/><path clip-path="url(#f)" fill="#F2D185" d="M38.8 60.2h53.7v2.4H38.8z"/><path clip-path="url(#f)" fill="#D2B163" d="M38.8 59.6h53.7v.6H38.8z"/><path clip-path="url(#f)" fill="#F2D185" d="M38.8 57.2h53.7v2.4H38.8z"/><path clip-path="url(#f)" fill="#D2B163" d="M38.8 56.6h53.7v.6H38.8z"/><path clip-path="url(#f)" fill="#F2D185" d="M38.8 54.2h53.7v2.4H38.8z"/><path clip-path="url(#f)" fill="#D2B163" d="M38.8 53.6h53.7v.6H38.8z"/><path clip-path="url(#f)" fill="#F2D185" d="M38.8 51.2h53.7v2.4H38.8z"/><path clip-path="url(#f)" fill="#D2B163" d="M38.8 50.6h53.7v.6H38.8z"/><path clip-path="url(#f)" fill="#F2D185" d="M38.8 48.2h53.7v2.4H38.8z"/><path clip-path="url(#f)" fill="#D2B163" d="M38.8 47.6h53.7v.6H38.8z"/><path clip-path="url(#f)" fill="#F2D185" d="M38.8 45.2h53.7v2.4H38.8z"/><path clip-path="url(#f)" fill="#D2B163" d="M38.8 44.6h53.7v.6H38.8z"/><path clip-path="url(#f)" fill="#F2D185" d="M38.8 42.2h53.7v2.4H38.8z"/><path clip-path="url(#f)" fill="#D2B163" d="M38.8 41.6h53.7v.6H38.8z"/><path clip-path="url(#f)" fill="#F2D185" d="M38.8 39.3h53.7v2.4H38.8z"/><path clip-path="url(#f)" fill="#D2B163" d="M38.8 38.6h53.7v.6H38.8z"/><path clip-path="url(#f)" fill="#F2D185" d="M38.8 36.3h53.7v2.4H38.8z"/><path clip-path="url(#f)" fill="#D2B163" d="M38.8 35.6h53.7v.6H38.8z"/><path fill="#1A1A1A" d="M45.8 40.9h5.5v9.6h-5.5z"/><path opacity=".5" fill="#B3B3B3" d="M92.4 65.8v-3L65.6 36.6 38.8 62.8v3l26.8-26.3z"/><path fill="#4E4E4E" d="M93.8 100.9v-1.4c0-.6-.6-1.2-1.3-1.2H38.7c-.7 0-1.3.5-1.3 1.2v1.4h56.4z"/><path fill="#1A1A1A" d="M37.5 100.4h56.3v.5H37.5z"/><path fill="#C0282D" d="M60 70h11.2v28.4H60z"/><path fill="#4E4E4E" d="M59.4 69.3V99h1.3V70.6h9.9V99h1.3V69.3z"/><path fill="#1A1A1A" d="M58.5 98.4h14.3v2.5H58.5z"/><path fill="#C0282D" d="M69.4 81.8c-1.3.1-2.5.1-3.8.2-1.3.1-2.5.1-3.8.1h-.3v-.4c-.1-3.2-.1-6.3-.1-9.5v-.5h.5c2.5 0 5 0 7.5.1h.4v.4l-.1 4.8c0 .8-.1 1.6-.1 2.4-.1.8-.1 1.6-.2 2.4zm0 0c-.1-.8-.1-1.6-.1-2.4 0-.8-.1-1.6-.1-2.4l-.2-4.7.4.4c-2.5.1-5 .1-7.5.1l.5-.5c0 3.2 0 6.3-.1 9.5l-.3-.3c1.3 0 2.5.1 3.8.1 1.1 0 2.4.1 3.6.2zm0 14.2c-1.3.1-2.5.1-3.8.2-1.3.1-2.5.1-3.8.1h-.3v-.4c-.1-3.2-.1-6.3-.1-9.5v-.5h.5c2.5 0 5 0 7.5.1h.4v.4l-.1 4.7c0 .8-.1 1.6-.1 2.4-.1 1-.1 1.8-.2 2.5zm0 0c-.1-.8-.1-1.6-.1-2.4 0-.8-.1-1.6-.1-2.4l-.2-4.6.4.4c-2.5.1-5 .1-7.5.1l.5-.5c0 3.2 0 6.3-.1 9.5l-.3-.3c1.3 0 2.5.1 3.8.1 1.1 0 2.4 0 3.6.1z"/><circle fill="#1A1A1A" cx="69.1" cy="84.6" r=".6"/><path fill="#C0282D" d="M65.6 30.3l-33 33h6.2l26.8-26.1 26.9 26.1h6.1zM52.7 40.7c0 .7-.6 1.3-1.3 1.3h-5.8c-.7 0-1.3-.6-1.3-1.3v-2.1c0-.7.6-1.3 1.3-1.3h5.8c.7 0 1.3.6 1.3 1.3v2.1z"/><circle fill="#A0D6ED" cx="65.6" cy="56.9" r="7.6"/><path fill="#4E4E4E" d="M65 49.3h1.3v15.3H65z"/><path fill="#4E4E4E" d="M58 56.2h15.3v1.3H58z"/><path fill="#1A1A1A" d="M57.4 56.9c0-4.6 3.7-8.3 8.3-8.3 4.6 0 8.3 3.7 8.3 8.3 0 4.6-3.7 8.3-8.3 8.3-4.6-.1-8.3-3.8-8.3-8.3zm1.2 0c0 3.9 3.1 7 7 7s7-3.1 7-7-3.1-7-7-7c-3.8 0-7 3.1-7 7z"/><path fill="#A0D6ED" d="M44.6 74.2h9.6v13.2h-9.6z"/><path fill="#4E4E4E" d="M43.3 72.9v15.7h12.1V72.9H43.3zm10.9 14.5h-9.6V74.2h9.6v13.2z"/><path opacity=".3" fill="#F2F2F2" d="M54.2 74.5l-9.6 7.4V84l9.6-7.3zm0 3.4l-9.6 7.3v2.2l9.6-7.4z"/><path fill="#1A1A1A" d="M42.2 84.5h14.4v4.2H42.2z"/><path fill="#A0D6ED" d="M77.1 74.2h9.6v13.2h-9.6z"/><path fill="#4E4E4E" d="M75.8 72.9v15.7h12.1V72.9H75.8zm10.8 14.5H77V74.2h9.6v13.2z"/><path opacity=".3" fill="#F2F2F2" d="M86.6 74.5l-9.5 7.4V84l9.5-7.3zm0 3.4l-9.5 7.3v2.2l9.5-7.4z"/><path fill="#1A1A1A" d="M74.6 84.5H89v4.2H74.6z"/><path fill="#A57C52" d="M72.7 98.4h4.7l1.3-2.4h-7.3z"/><path fill="#8CC541" d="M72.3 93.3v-.1c0-.6.5-1.2 1.2-1.3.2-.2.5-.4.8-.4.4 0 .8.2 1 .6.3-.4.8-.6 1.3-.6.9 0 1.7.7 1.7 1.5 0 .2 0 .4-.1.5.3.2.6.5.6.8 0 .2 0 .3-.1.4h-7c-.1-.2-.2-.3-.2-.6-.2-.3.2-.7.8-.8z"/><path fill="#C49B6D" d="M70.9 94.8h8.3v1.4h-8.3z"/><path fill="#A57C52" d="M53.8 98.4h4.8l1.2-2.4h-7.2z"/><path fill="#8CC541" d="M53.5 93.3v-.1c0-.6.5-1.2 1.2-1.3.2-.2.5-.4.8-.4.4 0 .8.2 1 .6.3-.4.8-.6 1.3-.6.9 0 1.7.7 1.7 1.5 0 .2 0 .4-.1.5.3.2.6.5.6.8 0 .2 0 .3-.1.4h-7c-.1-.2-.2-.3-.2-.6-.2-.3.2-.7.8-.8z"/><path fill="#C49B6D" d="M52 94.8h8.3v1.4H52z"/></svg>